<?xml version="1.0" encoding="utf-8"?>
<svg width="10px" height="10px" viewBox="0 0 10 10" version="1.1" xmlns:xlink="http://www.w3.org/1999/xlink" xmlns="http://www.w3.org/2000/svg">
  <path d="M9.6472 4.165L6.98025 3.34188L6.98025 0.530626C6.9806 0.389902 6.92291 0.254837 6.81994 0.155271C6.71696 0.0557057 6.57718 -0.000165796 6.43146 7.40814e-07L0.549438 1.33313C0.245992 1.33313 0 1.57069 0 1.86375L0 9.46937C0.000356612 9.76229 0.24614 9.99966 0.549438 10L6.43146 10C6.47935 10 6.52271 9.985 6.56672 9.97375C6.60771 9.99047 6.65166 9.99938 6.69615 10L9.64784 10C9.84705 9.99522 10.0046 9.83552 9.9999 9.64312L9.9999 4.52188C10.0042 4.32938 9.8465 4.16978 9.6472 4.165ZM4.90158 8.13813L2.07932 8.13813C1.92918 8.13813 1.80816 7.99813 1.80816 7.82563C1.80816 7.65313 1.92983 7.51313 2.07932 7.51313L4.90158 7.51313C5.05172 7.51313 5.17274 7.65313 5.17274 7.82563C5.17339 7.99813 5.05172 8.13813 4.90158 8.13813L4.90158 8.13813ZM4.90158 5.95625L2.07932 5.95625C1.92918 5.95625 1.80816 5.81625 1.80816 5.64375C1.80816 5.47125 1.92983 5.33125 2.07932 5.33125L4.90158 5.33125C5.05172 5.33125 5.17274 5.47125 5.17274 5.64375C5.17339 5.81625 5.05172 5.95625 4.90158 5.95625L4.90158 5.95625ZM4.90158 3.77438L2.07932 3.77438C1.92918 3.77438 1.80816 3.63438 1.80816 3.46188C1.80816 3.28938 1.92983 3.14938 2.07932 3.14938L4.90158 3.14938C5.05172 3.14938 5.17274 3.28938 5.17274 3.46188C5.17339 3.63438 5.05172 3.77438 4.90158 3.77438L4.90158 3.77438Z" id="形状" fill="#000000" stroke="none" />
</svg>