<?xml version="1.0" encoding="utf-8"?>
<svg width="10px" height="8.182251px" viewBox="0 0 10 8.182251" version="1.1" xmlns:xlink="http://www.w3.org/1999/xlink" xmlns="http://www.w3.org/2000/svg">
  <path d="M9.99071 1.26443L4.93432 4.18336L0.00398036 1.33608C0.0517447 0.590421 0.671355 0 1.42895 0L8.57105 0C9.30476 0 9.90978 0.551944 9.99071 1.26443L9.99071 1.26443ZM10 2.30994L10 6.75335C10 7.54279 9.36049 8.1823 8.57105 8.1823L1.42895 8.1823C0.639512 8.1823 0 7.54279 0 6.75335L0 2.38556L4.70877 5.10415C4.87064 5.19703 5.06568 5.17978 5.20632 5.07629C5.21295 5.07364 5.21826 5.06966 5.22489 5.06568L10 2.30994Z" id="形状" fill="#000000" stroke="none" />
</svg>