<?xml version="1.0" encoding="utf-8"?>
<svg width="10px" height="11.228394px" viewBox="0 0 10 11.228394" version="1.1" xmlns:xlink="http://www.w3.org/1999/xlink" xmlns="http://www.w3.org/2000/svg">
  <g id="电话">
    <path d="M6.48673 7.83101L5.94672 8.24663C5.94672 8.24663 5.4067 8.51006 4.75692 7.90711C4.1086 7.3027 2.95686 5.92119 2.63197 5.12946C2.30708 4.33626 2.95686 3.99674 2.95686 3.99674C2.95686 3.99674 3.80274 3.26061 3.83786 3.1289C3.87445 2.99719 4.34276 2.46742 3.33443 1.05225C2.32611 -0.364388 2.09195 -0.0804757 1.55193 0.354173C1.01191 0.787358 0.253841 1.63763 0.0928595 2.62108C-0.069585 3.60306 -0.176418 4.81188 1.19192 6.96464C2.56026 9.1174 4.63106 10.7609 5.78281 11.0243C6.93748 11.2877 7.74678 11.4575 8.89706 10.477C10.0503 9.49497 10.2493 9.40131 9.72538 8.70177C9.20731 8.00077 8.05849 7.16367 7.88581 7.12855C7.71458 7.09196 7.46726 7.03196 7.07944 7.33343C6.69162 7.63344 6.48673 7.83101 6.48673 7.83101" id="路径" fill="#000000" stroke="none" />
  </g>
</svg>