<?xml version="1.0" encoding="UTF-8"?>
<svg width="76px" height="76px" viewBox="0 0 76 76" version="1.1" xmlns="http://www.w3.org/2000/svg" xmlns:xlink="http://www.w3.org/1999/xlink">
    <title>咖啡杯</title>
    <g id="WAP" stroke="none" stroke-width="1" fill="none" fill-rule="evenodd">
        <g id="关于我们" transform="translate(-1106.000000, -922.000000)" stroke="#0022AB">
            <g id="4-2" transform="translate(0.000000, 698.000000)">
                <g id="编组-9" transform="translate(241.000000, 98.000000)">
                    <g id="编组-8" transform="translate(0.000000, 126.000000)">
                        <g id="咖啡杯" transform="translate(865.000000, 0.000000)">
                            <path d="M63.2108269,31.019431 L63.2108269,39.1379021 C63.2108269,46.470977 60.238511,53.1098304 55.4329264,57.915415 C50.6273417,62.7209997 43.9884884,65.6933155 36.6554134,65.6933155 C29.3223385,65.6933155 22.6834851,62.7209997 17.8779005,57.915415 C13.0723159,53.1098304 10.1,46.470977 10.1,39.1379021 L10.1,39.1379021 L10.1,31.019431 L63.2108269,31.019431 Z" id="Rectangle" stroke-width="2.2"></path>
                            <path d="M66.7805222,35.4130336 C62.4174271,35.7539384 60.2544215,39.3005365 60.2544215,43.1952853 C60.2544215,47.559189 63.7945174,51.0297757 70.199535,51.0297757" id="Path" stroke-width="2.2" transform="translate(65.226978, 43.221405) scale(-1, 1) translate(-65.226978, -43.221405) "></path>
                            <line x1="29.5028253" y1="16.6458903" x2="29.5028253" y2="26.3822595" id="Path-2" stroke-width="2" stroke-linecap="round"></line>
                            <line x1="45.3059187" y1="16.6458903" x2="45.3059187" y2="26.3822595" id="Path-2-Copy-2" stroke-width="2" stroke-linecap="round"></line>
                            <line x1="37.404372" y1="13" x2="37.404372" y2="26.3822595" id="Path-2-Copy" stroke-width="2" stroke-linecap="round"></line>
                        </g>
                    </g>
                </g>
            </g>
        </g>
    </g>
</svg>