<?xml version="1.0" encoding="UTF-8"?>
<svg width="77px" height="77px" viewBox="0 0 77 77" version="1.1" xmlns="http://www.w3.org/2000/svg" xmlns:xlink="http://www.w3.org/1999/xlink">
    <title>咖啡豆</title>
    <g id="WAP" stroke="none" stroke-width="1" fill="none" fill-rule="evenodd">
        <g id="关于我们" transform="translate(-684.000000, -921.000000)" fill="#0A2DB8" fill-rule="nonzero" stroke="#0A2DB8">
            <g id="4-2" transform="translate(0.000000, 698.000000)">
                <g id="编组-9" transform="translate(241.000000, 98.000000)">
                    <g id="编组-8" transform="translate(0.000000, 126.000000)">
                        <g id="咖啡豆" transform="translate(443.500000, 0.000000)">
                            <g transform="translate(48.566855, 55.666442) rotate(19.000000) translate(-48.566855, -55.666442) translate(33.371992, 40.207524)" id="形状" stroke-width="0.2">
                                <path d="M4.92662397,29.4928732 C1.54753244,27.2260141 -0.263611397,23.2217307 0.0311250885,18.5004965 C0.0560323971,18.0962955 0.447459645,17.7793788 0.858430237,17.8043809 C1.26109839,17.8293831 1.57243975,18.1794128 1.54338122,18.5877808 C1.28185448,22.7714693 2.81365396,26.3009356 5.74441394,28.2719363 C6.27576986,28.6303 6.93581353,28.6678032 7.47132067,28.3761118 C9.49296388,27.2635173 14.2128989,23.7465521 14.38725,15.1541559 C14.5159378,8.72861044 18.1856146,4.2323954 20.3650041,2.12388306 C20.4853894,2.00720649 20.4604821,1.86136077 20.439726,1.8071895 C20.4189699,1.74051718 20.3608529,1.62800763 20.2155602,1.60717252 C18.8664143,1.39465448 17.4342441,1.44049171 15.9522592,1.74051718 C10.7101232,2.80630694 5.55680307,7.02656447 3.04115862,12.3954588 C1.21329447,15.3823593 1.66960965,18.4865667 1.53801228,18.8140019 C1.38441721,19.1932008 0.88162913,19.4032344 0.503868283,19.2532216 C0.126107437,19.1032089 -0.0209689812,18.8123108 0.0380818117,18.2780594 C0.176637817,17.9591893 0.0617606356,15.028082 1.7463992,11.7497326 C4.46934156,5.90519147 9.88910076,1.46595485 15.6533715,0.294561088 C17.3055563,-0.0429675665 18.916229,-0.0888047912 20.4355748,0.148715373 C21.0956185,0.252890884 21.6311256,0.719597172 21.8303841,1.36131832 C22.0337938,2.01137351 21.8594426,2.71143294 21.3737501,3.18230625 C19.3604093,5.13247181 15.9647129,9.28699118 15.8443276,15.1791581 C15.661674,24.542453 10.4186855,28.430283 8.17287653,29.6637211 C7.71624254,29.9179093 7.20979393,30.0429199 6.70334532,30.0429199 C6.08896504,30.0429199 5.47043354,29.859571 4.92662397,29.4928732 Z M12.3222422,30.9136687 C11.8739106,30.9136687 11.4878473,30.6303113 11.3550083,30.2011082 C11.2180181,29.7635711 11.3799156,29.2968648 11.7618277,29.0385095 C13.9993343,27.5217141 17.743733,23.8088989 17.6731623,16.0082366 L17.6731623,15.879059 C17.6690111,13.9705636 17.9969573,12.0620683 18.6486985,10.2119112 C18.7815375,9.82854533 19.2049618,9.62852835 19.5868738,9.76187301 C19.9687859,9.89938468 20.1680444,10.3160867 20.0352054,10.7036196 C19.4415812,12.3954299 19.1426935,14.1372445 19.1426935,15.879059 L19.1426935,15.9999026 C19.209113,23.2046809 16.2243872,27.2383567 13.804227,29.3218669 C14.2027439,29.2676956 14.6054121,29.1885223 15.0080803,29.0968478 C22.4180046,27.3592003 28.6531341,19.6127093 28.9146609,11.8328822 C29.0350462,8.29091479 27.8851588,5.23648882 25.680862,3.22798497 C25.4733011,3.04046905 25.1495061,3.04463607 24.9460964,3.24048603 C24.4074953,3.75169594 23.7061973,4.48123407 22.9753032,5.41585007 C21.9712133,6.35368564 20.1250921,10.4595361 19.771613,11.4074652 C19.6165944,11.8231803 19.1032668,11.8575034 18.7587157,11.6408184 C18.4141646,11.4241333 18.3103842,10.9699281 18.5262475,10.6240654 C18.7886503,9.84988024 19.8187589,6.93953291 21.8769363,4.43351775 C22.6410689,3.46481499 23.3711367,2.7050313 23.9331992,2.16956178 C24.6928721,1.44866725 25.8925741,1.43199917 26.6647007,2.13622562 C29.1969437,4.44058792 30.5170311,7.89921487 30.3800409,11.8828864 C30.097758,20.2877666 23.3520286,28.6551436 15.3401777,30.5344699 C14.3272805,30.77199 13.3143833,30.9011677 12.338847,30.9178357 C12.3305446,30.9136687 12.3263934,30.9136687 12.3222422,30.9136687 Z"></path>
                            </g>
                            <g id="咖啡豆备份" transform="translate(21.403502, 37.883092) rotate(-61.000000) translate(-21.403502, -37.883092) translate(8.097835, 24.216825)" stroke-width="0.1">
                                <path d="M22.1061592,1.37547169 C22.5526794,1.3700222 23.0005027,1.52640555 23.3512471,1.84630583 C25.6003445,3.89300328 26.7744302,6.96443633 26.6527413,10.5031474 C26.5275831,14.2296922 24.970019,17.9481958 22.5550292,20.9431289 C20.1400185,23.9380878 16.8679308,26.2089817 13.3156511,27.0422339 C12.4164642,27.2530894 11.5172742,27.3677296 10.6499541,27.3825318 C10.4337421,27.3805939 10.2359442,27.3136174 10.0765979,27.1975334 C9.9163337,27.0807808 9.79483086,26.9142897 9.7327574,26.7137292 C9.66879367,26.5094335 9.67478084,26.2983312 9.74130867,26.1082095 C9.80767098,25.9185609 9.93429415,25.7497163 10.1121349,25.629411 C12.0834009,24.2930987 15.3792666,21.0205148 15.3172693,14.1451366 C15.5228082,11.61324 15.7718008,9.90482541 16.2438506,8.67145234 C16.6412693,7.63307574 17.0788725,6.90271294 17.4681825,6.25322896 C18.693118,4.07878724 20.0728948,2.63391457 20.8679317,1.8764935 C21.2134633,1.54859994 21.6591255,1.38092743 22.1061592,1.37547169 Z M21.8033868,2.9239243 C21.1140362,3.58126241 20.1316733,4.63934552 18.9267688,6.47624514 C18.5025997,7.06259381 17.808426,8.13101786 17.3679436,9.43722742 C16.8054884,11.1051361 16.7164929,13.2011402 16.7164929,14.1418132 C16.7742504,20.4067678 14.2297143,23.967932 12.1070706,25.847201 C12.403073,25.8016448 12.70128,25.7415217 12.9994897,25.6736291 C16.2641517,24.9080558 19.2698769,22.8182488 21.488809,20.0636128 C23.7089366,17.3074927 25.1417856,13.8853439 25.2570808,10.4555745 C25.3624421,7.35564326 24.3626741,4.67926273 21.8033868,2.9239243 Z M18.036474,0.0821083341 C18.3375967,0.129634903 18.6103153,0.259830073 18.8305367,0.451283564 C19.050933,0.642889067 19.218768,0.895874909 19.3097143,1.18877195 C19.4025367,1.48541313 19.409046,1.79346946 19.3369353,2.08103624 C19.2649034,2.36828864 19.1144245,2.63511975 18.8930188,2.84977011 C17.1186373,4.56847446 14.1251033,8.22959085 14.0190012,13.4226758 C13.9554406,16.6809566 13.2004793,19.1914224 12.1867273,21.1055003 C10.6152325,24.0726594 8.42124526,25.6077256 7.21008645,26.2729146 C6.79876527,26.5018792 6.34257893,26.614522 5.88638008,26.614522 C5.33348816,26.614522 4.77681798,26.4496265 4.28751412,26.1196824 C1.37160271,24.1635471 -0.192879923,20.7445766 -0.0397025306,16.7047143 C-0.00482261285,16.0019352 0.0527261824,14.8084578 1.73447028,10.694374 C3.51484076,6.33901847 8.37130582,1.31266695 13.7901558,0.211468345 C15.2571818,-0.088233781 16.6873423,-0.128802219 18.036474,0.0821083341 Z M17.7423895,1.45779365 C16.5797487,1.2854791 15.3479562,1.33016818 14.0743671,1.58800426 C9.17807775,2.58347921 5.52518844,6.1961014 3.34988465,10.3565617 C1.62905815,13.6477941 1.46851987,15.5386985 1.37356692,16.4409031 C1.14376657,20.1177804 2.48839277,23.2233428 5.06637767,24.9570944 C5.29324365,25.1101002 5.54744421,25.1948276 5.80218283,25.2101946 C6.05717827,25.2255772 6.31268119,25.1714393 6.5415214,25.0467898 C7.62270004,24.4517716 9.58078568,23.0749009 10.9854795,20.3893905 C11.8937143,18.6530166 12.5703501,16.3700541 12.6306453,13.3985789 C12.739656,7.95553051 15.7136345,4.07346718 17.7423895,1.45779365 Z M0.270308253,15.965479 C0.158690818,16.0831868 0.097879339,16.2614972 0.26400315,16.8605153 C0.421602645,16.853936 0.612403442,16.5511208 0.270308253,15.965479 Z" id="形状"></path>
                            </g>
                            <g id="咖啡豆备份-2" transform="translate(43.269169, 15.323684) scale(-1, 1) rotate(-63.000000) translate(-43.269169, -15.323684) translate(32.040853, 3.607180)" stroke-width="0.2">
                                <path d="M18.7342496,1.931525 C19.1175786,1.92684672 19.5019801,2.0611866 19.8030215,2.33575479 C21.6727576,4.03723021 22.6506832,6.59005443 22.5495006,9.53244033 C22.4456963,12.6231818 21.1545161,15.7075739 19.1514631,18.1916464 C17.1480687,20.6761422 14.4332861,22.55915 11.4866422,23.2503392 C10.7396519,23.4255054 9.99265539,23.5206998 9.27322285,23.5329921 C10.3532142,20.9435336 12.9987215,18.3383194 13.0672724,12.9179816 C13.0653488,11.2598495 13.2372371,10.0749921 13.5774177,8.92198264 C13.7045397,8.36308076 14.5805659,6.60411967 15.035706,5.72438768 C16.3112972,3.74492666 17.1070248,2.89946581 17.6716791,2.36152732 C17.9681932,2.08014911 18.3506189,1.93620696 18.7342496,1.931525 Z M18.4908364,3.34484571 C17.9320748,3.88186265 17.1472262,4.73848981 16.1608058,6.31150983 C15.727883,7.12475628 14.9297067,8.61852177 14.7691365,9.38979393 C14.4838635,10.4010826 14.3413285,11.4249547 14.3413285,12.5363245 C14.3879186,17.5896954 12.3925847,20.5224001 10.663169,22.1150286 C10.8413203,22.0834238 11.0201764,22.0460964 11.1990354,22.005376 C13.8834023,21.3758824 16.3546302,19.6565782 18.1792708,17.3914252 C20.0052423,15.12462 21.1844077,12.3102029 21.2792386,9.48919877 C21.3650035,6.96583002 20.558904,4.78356708 18.4908364,3.34484571 Z M16.2494564,5.33108749 C16.2012678,5.22986451 16.107516,5.15666868 15.7795158,5.20993538 C15.6972482,5.37227938 15.6144084,5.67133801 15.5171941,6.19974466 C15.5550013,6.21564194 15.5947851,6.22462299 15.6365235,6.22468041 C15.6963889,6.22476277 15.7594848,6.20654025 15.8259152,6.16809033 C15.9646224,6.08780661 16.112369,5.92570717 16.2707656,5.65871921 C16.3068349,5.54601981 16.2964194,5.42973596 16.2494564,5.33108749 Z M14.9088466,0.00985066537 C15.1687412,0.0508701426 15.404105,0.163266047 15.5941706,0.328503083 C15.784278,0.49377637 15.9291062,0.71196329 16.0075203,0.964500563 C16.0875098,1.22013043 16.0930617,1.48559338 16.0309229,1.73339349 C15.9688081,1.98109817 15.8390573,2.21120062 15.6481137,2.3963182 C14.1891911,3.80946232 11.7268432,6.81931948 11.6395985,11.0894422 C11.586872,13.7923376 10.9600888,15.8746939 10.1191663,17.4624503 C8.81357859,19.9275468 6.99059997,21.2025447 5.98470664,21.7549973 C5.63604864,21.94908 5.24936774,22.0446051 4.86266181,22.0446051 C4.3946024,22.0446051 3.92329542,21.9051296 3.50916001,21.6258724 C1.09377141,20.0055121 -0.208970304,17.1789081 -0.0921717558,13.8271957 C0.111584645,12.1672683 0.843876906,9.1612749 1.51830248,7.95858821 C3.59258624,3.94943674 7.33516104,0.939184788 11.3801194,0.117183378 C12.5992097,-0.131867388 13.7876585,-0.165425396 14.9088466,0.00985066537 Z M14.5483891,1.24824217 C13.6237801,1.12370342 12.6470117,1.16514564 11.6382976,1.36935818 C7.99057721,2.11098397 4.49545818,4.96403855 2.60753593,8.63277917 C1.96181612,9.73724596 1.40527506,12.3393172 1.19317129,13.5882914 C1.00599577,16.6013482 2.10520446,19.1471067 4.21802417,20.5680245 C4.39647402,20.6883768 4.5963174,20.7551393 4.79664194,20.7672238 C4.99637815,20.7792729 5.19653013,20.7369239 5.3757889,20.6392814 C6.26304144,20.1509883 7.86997641,19.0204752 9.02295098,16.8162048 C9.76985068,15.3882731 10.3257452,13.5107309 10.3753277,11.0672005 C10.4645803,6.61070195 12.868788,3.41550023 14.5483891,1.24824217 Z M0.674345324,13.1192877 L0.412805294,13.2832999 L0.401679817,13.3505755 C0.379674335,13.5196581 0.385898039,13.7754673 0.431931255,14.1596822 C0.475008952,14.1702275 0.518683713,14.1726105 0.561945066,14.1637579 C0.617549512,14.1523795 0.671559632,14.1223337 0.722879563,14.0714495 C0.830127983,13.9651117 0.921972866,13.7769871 0.991417503,13.4832508 C0.980179363,13.3958733 0.94271256,13.3162383 0.887074433,13.2527319 C0.831641589,13.1894599 0.758146747,13.1421431 0.674345324,13.1192877 L0.674345324,13.1192877 Z" id="形状"></path>
                            </g>
                        </g>
                    </g>
                </g>
            </g>
        </g>
    </g>
</svg>