<?xml version="1.0" encoding="UTF-8"?>
<svg width="76px" height="76px" viewBox="0 0 76 76" version="1.1" xmlns="http://www.w3.org/2000/svg" xmlns:xlink="http://www.w3.org/1999/xlink">
    <title>皇冠 (1)</title>
    <g id="WAP" stroke="none" stroke-width="1" fill="none" fill-rule="evenodd">
        <g id="关于我们" transform="translate(-273.000000, -922.000000)" fill-rule="nonzero" stroke="#0A2DB8" stroke-width="1.7">
            <g id="4-2" transform="translate(0.000000, 698.000000)">
                <g id="编组-9" transform="translate(241.000000, 98.000000)">
                    <g id="编组-8" transform="translate(0.000000, 126.000000)">
                        <g id="皇冠-(1)" transform="translate(32.000000, 0.000000)">
                            <path d="M71.6939571,36.6995277 C70.8618657,36.6995277 70.1810637,37.4692952 70.1810637,38.4101222 C70.1810637,38.9803203 70.4206051,39.4792437 70.7988285,39.7928526 L60.334649,51.5959541 L60.334649,27.7046521 C61.1415255,27.6618873 61.7718977,26.9063747 61.7718977,25.9940577 C61.7718977,25.0532308 61.0910957,24.2834633 60.2590043,24.2834633 C59.426913,24.2834633 58.7461109,25.0532308 58.7461109,25.9940577 C58.7461109,26.6782955 59.1117268,27.2770035 59.6286321,27.5478477 L48.9879483,51.610209 L37.9186114,13.3926789 C38.6246283,13.2358744 39.154141,12.5516367 39.154141,11.7105944 C39.154141,10.7697675 38.473339,10 37.6412476,10 C36.8091563,10 36.1283542,10.7697675 36.1283541,11.7105944 C36.1283541,12.5516366 36.6578668,13.2501293 37.3638838,13.3926789 L26.2819395,51.610209 L15.6160408,27.4908278 C16.1581609,27.2199837 16.5237768,26.6212756 16.5237768,25.9227829 C16.5237768,24.981956 15.8429748,24.2121885 15.0108834,24.2121885 C14.1787921,24.2121885 13.49799,24.981956 13.49799,25.9227829 C13.49799,26.8350999 14.1283623,27.5906125 14.9352387,27.6333774 L14.9352387,51.610209 L4.50888157,39.8356175 C4.82406773,39.5220085 5.02578683,39.06585 5.02578683,38.5526717 C5.02578683,37.6118448 4.34498477,36.8420773 3.51289342,36.8420773 C2.68080206,36.8420773 2,37.6118448 2,38.5526717 C2,39.4934986 2.68080206,40.2632661 3.51289342,40.2632661 C3.65157534,40.2632661 3.77764977,40.2347562 3.90372419,40.2062463 L9.26188842,64.4254121 L66.0332142,64.4254121 L71.4165933,40.0922066 C71.5048454,40.1064616 71.605705,40.1207165 71.7065646,40.1207166 C72.5386559,40.1207166 73.219458,39.3509491 73.219458,38.4101222 C73.219458,37.4692953 72.5386559,36.6995278 71.6939571,36.6995277 L71.6939571,36.6995277 Z" id="路径"></path>
                        </g>
                    </g>
                </g>
            </g>
        </g>
    </g>
</svg>