<?xml version="1.0" encoding="UTF-8"?>
<svg width="54px" height="53px" viewBox="0 0 54 53" version="1.1" xmlns="http://www.w3.org/2000/svg" xmlns:xlink="http://www.w3.org/1999/xlink">
    <title>两包咖啡豆</title>
    <g id="WAP" stroke="none" stroke-width="1" fill="none" fill-rule="evenodd">
        <g id="首页" transform="translate(-757.000000, -3356.000000)" stroke="#FFFFFF" stroke-width="1.5">
            <g id="1-5" transform="translate(0.000000, 3244.000000)">
                <g id="两包咖啡豆" transform="translate(758.000000, 113.000000)">
                    <path d="M24.2632562,49.6083521 C19.3833409,49.6083521 12.0634679,49.6083521 2.30363729,49.6083521 C1.03137354,49.6083521 0,48.5769786 0,47.3047148 C0,47.2651551 0.00101902396,47.2256019 0.003056058,47.1860946 L2.06541771,9.5792487 L2.06541771,2.30363729 C2.06541771,1.03137354 3.09679125,0 4.369055,0 L36.835416,0 C38.1076796,0 39.1390532,1.03137363 39.1390535,2.30363729 L39.1390542,9.85545805 L39.7680496,21.8798508" id="Path"></path>
                    <path d="M47.6211186,22.0227273 L47.8711193,27.1552651 L51.6306946,50.9610015 L23.8393278,51.25 L26.8797264,26.9842248 L26.8797264,22.2727273 L47.6211186,22.0227273 Z" id="Rectangle-Copy-6"></path>
                    <path d="M28.3642295,22.2439633 C27.863819,21.5796253 27.2539273,20.9925937 26.5379308,20.509648 C22.603834,17.8560662 16.9561577,19.349731 13.9234928,23.8458416 C10.8908279,28.3419522 11.6215828,34.1379231 15.5556796,36.7915049 C18.4849041,38.7672918 22.3641194,38.4438875 25.4065528,36.2938475" id="Path"></path>
                    <path d="M36.5365629,33.0052756 C37.9916528,32.6204418 39.5221005,32.7943081 40.7786043,33.6418305 C42.035108,34.489353 42.7696298,35.843228 42.9579044,37.3365252 C43.1526103,38.8808315 42.7668589,40.5747018 41.7682481,42.0552031 C40.7696373,43.5357045 39.3436132,44.5279019 37.8388192,44.9258811 C36.3837292,45.3107149 34.8532815,45.1368487 33.5967778,44.2893262 C32.340274,43.4418037 31.6057523,42.0879288 31.4174776,40.5946316 C31.2227718,39.0503252 31.6085232,37.3564549 32.6071339,35.8759536 C33.6057447,34.3954523 35.0317688,33.4032548 36.5365629,33.0052756 Z" id="Oval-Copy-3"></path>
                    <line x1="1.1276922" y1="8.80769307" x2="38.2771805" y2="8.83935982" id="Path-7"></line>
                    <line x1="26.15634" y1="27.1251478" x2="47.5510767" y2="27.143385" id="Path-7-Copy"></line>
                    <path d="M26.9821082,22.4812467 C23.3865635,22.6488446 21.2417849,24.645641 20.4194704,28.7255248 C19.5971558,32.8054085 17.5239645,35.3637361 15.5014616,36.0167726" id="Path-8"></path>
                    <path d="M41.5922671,34.7159267 C38.9939648,34.6845533 37.187691,36.0359789 36.7779843,38.8861868 C36.3865009,41.6096209 34.8476471,43.311661 33.4993118,43.7470186" id="Path-8-Copy"></path>
                </g>
            </g>
        </g>
    </g>
</svg>