<?xml version="1.0" encoding="UTF-8"?>
<svg width="111px" height="39px" viewBox="0 0 111 39" version="1.1" xmlns="http://www.w3.org/2000/svg" xmlns:xlink="http://www.w3.org/1999/xlink">
    <title>4</title>
    <g id="页面-1" stroke="none" stroke-width="1" fill="none" fill-rule="evenodd">
        <g id="画板备份-4" transform="translate(-574.000000, -609.000000)">
            <g id="1-4备份" transform="translate(0.000000, 253.000000)">
                <g id="Hideroni-Izaki" transform="translate(426.000000, 0.000000)">
                    <g id="4" transform="translate(149.000000, 357.000000)">
                        <path d="M12.1730538,16.5368 C12.1620538,15.7988 12.0170538,15.4348 11.7350538,15.4478 C11.3590538,15.4628 10.7960538,15.5498 10.0480538,15.7018 C8.64205376,16.0078 7.32705376,16.1228 6.10605376,16.0498 C6.11605376,16.7878 6.27205376,17.8288 6.57305376,19.1678 C6.67405376,19.7808 6.77605376,20.2668 6.87605376,20.6318 C7.15805376,20.6198 7.57905376,20.5418 8.14105376,20.3948 C8.51105376,20.1338 8.79105376,19.9978 8.98105376,19.9898 L12.2070538,18.9328 C12.2040538,18.6888 12.1990538,18.3808 12.1940538,18.0118 C12.1850538,17.3978 12.1780538,16.9048 12.1730538,16.5368 M12.1350538,33.7008 C12.1280538,33.2098 12.2120538,32.5898 12.3900538,31.8448 C12.6600538,30.9738 12.7910538,30.2298 12.7810538,29.6138 L12.6900538,23.1588 C12.6880538,23.0368 12.6840538,22.7288 12.6770538,22.2358 C12.6570538,20.8838 12.5070538,20.2128 12.2250538,20.2248 C11.9440538,20.2358 11.6140538,20.3128 11.2420538,20.4498 C10.9640538,20.7098 10.6840538,20.8418 10.4020538,20.8538 C10.3080538,20.8578 10.1210538,20.9288 9.84105376,21.0618 C8.15505376,21.3808 7.22005376,21.7878 7.04105376,22.2858 C7.05205376,23.1468 7.06505376,24.0088 7.07705376,24.8678 L7.08805376,25.6048 C7.00005376,26.1018 6.95805376,26.4118 6.96005376,26.5338 C6.72005376,29.4958 6.22505376,31.1168 5.47805376,31.3928 C5.19605376,31.4048 5.09905376,31.1638 5.18605376,30.6668 L5.18405376,30.4828 C5.17805376,30.1138 5.26305376,29.5568 5.44205376,28.8108 C5.62405376,28.4338 5.71505376,28.1848 5.71305376,28.0608 C5.78805376,26.8298 5.81705376,25.4738 5.79605376,23.9978 C5.78505376,23.2608 5.77805376,22.7708 5.77505376,22.5238 L5.62905376,22.1598 C5.44005376,22.1678 5.15905376,22.2438 4.78705376,22.3788 C4.03405376,22.4108 3.47205376,22.5578 3.10205376,22.8188 C2.91205376,22.8268 2.68005376,22.8998 2.40005376,23.0318 C1.46405376,23.3198 0.761053761,23.4698 0.292053761,23.4898 C0.103053761,23.4968 0.00705376113,23.2558 -1.11022302e-15,22.7638 C-0.00894623887,22.1488 1.11205376,21.6728 3.36205376,21.3318 C4.86105376,21.1478 5.61105376,20.9328 5.60805376,20.6848 C5.60505376,20.4388 5.60205376,20.2548 5.60005376,20.1308 C5.38005376,17.9258 5.12805376,16.6438 4.84105376,16.2868 L3.15105376,16.3568 L3.00705376,16.1788 C2.90905376,15.9378 2.95105376,15.6278 3.13505376,15.2498 C3.22605376,15.1258 3.46105376,15.0528 3.83705376,15.0368 C4.30405376,14.8968 4.53705376,14.7028 4.53305376,14.4548 C4.52805376,14.0858 4.42605376,13.5998 4.23005376,12.9908 C4.03205376,12.3848 3.88505376,11.9608 3.79005376,11.7178 C3.69005376,11.3528 3.44805376,10.9328 3.06705376,10.4548 C2.58705376,9.8618 2.34705376,9.3778 2.34205376,9.0098 C2.33705376,8.6408 2.61605376,8.4448 3.17905376,8.4208 C3.36605376,8.4128 3.55305376,8.4058 3.74205376,8.3978 C3.74805376,8.7668 3.94305376,9.3128 4.32905376,10.0338 C4.42705376,10.3988 4.52505376,10.6428 4.62105376,10.7598 C5.10805376,11.9708 5.45405376,13.2488 5.66205376,14.5928 C5.75505376,14.5878 6.08505376,14.5758 6.64905376,14.5518 C7.11905376,14.6558 7.40205376,14.7038 7.49605376,14.7008 L7.63705376,14.6938 C9.42005376,14.6198 10.8250538,14.3178 11.8520538,13.7818 C11.9410538,13.5328 11.9860538,13.2858 11.9830538,13.0368 C11.8580538,10.9528 11.4580538,9.3078 10.7850538,8.1048 C10.6890538,7.9878 10.5010538,7.9328 10.2190538,7.9438 C9.74605376,7.8428 9.55605376,7.6018 9.64505376,7.2288 C9.82305376,6.6078 10.0050538,6.1708 10.1900538,5.9148 C10.7480538,5.5228 11.3700538,6.3588 12.0580538,8.4208 L12.9710538,13.1818 C13.0670538,13.4258 13.1640538,13.5428 13.2580538,13.5378 C13.5400538,13.5268 13.9620538,13.4488 14.5230538,13.3018 C14.9900538,13.1608 15.3650538,13.0808 15.6470538,13.0698 C15.7400538,13.0668 15.8340538,13.0618 15.9290538,13.0578 L16.0750538,13.4218 C16.0860538,14.1598 15.9500538,14.5338 15.6680538,14.5458 C14.8250538,14.7048 14.2150538,14.8538 13.8420538,14.9908 C13.5610538,15.0018 13.3270538,15.1358 13.1430538,15.3888 C13.1450538,15.5118 13.1940538,15.6948 13.2920538,15.9358 C13.2990538,16.4288 13.3040538,16.7978 13.3080538,17.0428 L13.4560538,17.5898 C13.4620538,17.9598 13.4650538,18.2068 13.4670538,18.3288 C14.1230538,18.2998 14.8700538,17.9008 15.7050538,17.1278 C15.9830538,16.8708 16.2140538,16.6768 16.4010538,16.5448 C16.4950538,16.6648 16.7320538,16.7158 17.1080538,16.7008 C17.5770538,16.6808 17.8150538,16.8548 17.8200538,17.2238 C17.7330538,17.7218 17.5020538,18.0998 17.1310538,18.3608 C16.1990538,18.8908 15.4040538,19.2338 14.7500538,19.3818 C14.6570538,19.5098 14.3770538,19.5818 13.9080538,19.6008 C13.7190538,19.6088 13.5820538,19.9238 13.4990538,20.5408 C13.5140538,21.6478 13.6210538,22.6288 13.8220538,23.4808 C13.8500538,25.4478 13.8780538,27.4168 13.9060538,29.3828 L13.5470538,33.8268 C13.1790538,34.4588 12.8550538,34.7768 12.5730538,34.7889294 C12.3840538,34.7968 12.2380538,34.4338 12.1350538,33.7008" id="Fill-1" fill="#FFFFFF"></path>
                        <path d="M12.1730538,16.5368 C12.1620538,15.7988 12.0170538,15.4348 11.7350538,15.4478 C11.3590538,15.4628 10.7960538,15.5498 10.0480538,15.7018 C8.64205376,16.0078 7.32705376,16.1228 6.10605376,16.0498 C6.11605376,16.7878 6.27205376,17.8288 6.57305376,19.1678 C6.67405376,19.7808 6.77605376,20.2668 6.87605376,20.6318 C7.15805376,20.6198 7.57905376,20.5418 8.14105376,20.3948 C8.51105376,20.1338 8.79105376,19.9978 8.98105376,19.9898 L12.2070538,18.9328 C12.2040538,18.6888 12.1990538,18.3808 12.1940538,18.0118 C12.1850538,17.3978 12.1780538,16.9048 12.1730538,16.5368 Z M12.1350538,33.7008 C12.1280538,33.2098 12.2120538,32.5898 12.3900538,31.8448 C12.6600538,30.9738 12.7910538,30.2298 12.7810538,29.6138 L12.6900538,23.1588 C12.6880538,23.0368 12.6840538,22.7288 12.6770538,22.2358 C12.6570538,20.8838 12.5070538,20.2128 12.2250538,20.2248 C11.9440538,20.2358 11.6140538,20.3128 11.2420538,20.4498 C10.9640538,20.7098 10.6840538,20.8418 10.4020538,20.8538 C10.3080538,20.8578 10.1210538,20.9288 9.84105376,21.0618 C8.15505376,21.3808 7.22005376,21.7878 7.04105376,22.2858 C7.05205376,23.1468 7.06505376,24.0088 7.07705376,24.8678 L7.08805376,25.6048 C7.00005376,26.1018 6.95805376,26.4118 6.96005376,26.5338 C6.72005376,29.4958 6.22505376,31.1168 5.47805376,31.3928 C5.19605376,31.4048 5.09905376,31.1638 5.18605376,30.6668 L5.18405376,30.4828 C5.17805376,30.1138 5.26305376,29.5568 5.44205376,28.8108 C5.62405376,28.4338 5.71505376,28.1848 5.71305376,28.0608 C5.78805376,26.8298 5.81705376,25.4738 5.79605376,23.9978 C5.78505376,23.2608 5.77805376,22.7708 5.77505376,22.5238 L5.62905376,22.1598 C5.44005376,22.1678 5.15905376,22.2438 4.78705376,22.3788 C4.03405376,22.4108 3.47205376,22.5578 3.10205376,22.8188 C2.91205376,22.8268 2.68005376,22.8998 2.40005376,23.0318 C1.46405376,23.3198 0.761053761,23.4698 0.292053761,23.4898 C0.103053761,23.4968 0.00705376113,23.2558 -1.11022302e-15,22.7638 C-0.00894623887,22.1488 1.11205376,21.6728 3.36205376,21.3318 C4.86105376,21.1478 5.61105376,20.9328 5.60805376,20.6848 C5.60505376,20.4388 5.60205376,20.2548 5.60005376,20.1308 C5.38005376,17.9258 5.12805376,16.6438 4.84105376,16.2868 L3.15105376,16.3568 L3.00705376,16.1788 C2.90905376,15.9378 2.95105376,15.6278 3.13505376,15.2498 C3.22605376,15.1258 3.46105376,15.0528 3.83705376,15.0368 C4.30405376,14.8968 4.53705376,14.7028 4.53305376,14.4548 C4.52805376,14.0858 4.42605376,13.5998 4.23005376,12.9908 C4.03205376,12.3848 3.88505376,11.9608 3.79005376,11.7178 C3.69005376,11.3528 3.44805376,10.9328 3.06705376,10.4548 C2.58705376,9.8618 2.34705376,9.3778 2.34205376,9.0098 C2.33705376,8.6408 2.61605376,8.4448 3.17905376,8.4208 C3.36605376,8.4128 3.55305376,8.4058 3.74205376,8.3978 C3.74805376,8.7668 3.94305376,9.3128 4.32905376,10.0338 C4.42705376,10.3988 4.52505376,10.6428 4.62105376,10.7598 C5.10805376,11.9708 5.45405376,13.2488 5.66205376,14.5928 C5.75505376,14.5878 6.08505376,14.5758 6.64905376,14.5518 C7.11905376,14.6558 7.40205376,14.7038 7.49605376,14.7008 L7.63705376,14.6938 C9.42005376,14.6198 10.8250538,14.3178 11.8520538,13.7818 C11.9410538,13.5328 11.9860538,13.2858 11.9830538,13.0368 C11.8580538,10.9528 11.4580538,9.3078 10.7850538,8.1048 C10.6890538,7.9878 10.5010538,7.9328 10.2190538,7.9438 C9.74605376,7.8428 9.55605376,7.6018 9.64505376,7.2288 C9.82305376,6.6078 10.0050538,6.1708 10.1900538,5.9148 C10.7480538,5.5228 11.3700538,6.3588 12.0580538,8.4208 L12.9710538,13.1818 C13.0670538,13.4258 13.1640538,13.5428 13.2580538,13.5378 C13.5400538,13.5268 13.9620538,13.4488 14.5230538,13.3018 C14.9900538,13.1608 15.3650538,13.0808 15.6470538,13.0698 C15.7400538,13.0668 15.8340538,13.0618 15.9290538,13.0578 L16.0750538,13.4218 C16.0860538,14.1598 15.9500538,14.5338 15.6680538,14.5458 C14.8250538,14.7048 14.2150538,14.8538 13.8420538,14.9908 C13.5610538,15.0018 13.3270538,15.1358 13.1430538,15.3888 C13.1450538,15.5118 13.1940538,15.6948 13.2920538,15.9358 C13.2990538,16.4288 13.3040538,16.7978 13.3080538,17.0428 L13.4560538,17.5898 C13.4620538,17.9598 13.4650538,18.2068 13.4670538,18.3288 C14.1230538,18.2998 14.8700538,17.9008 15.7050538,17.1278 C15.9830538,16.8708 16.2140538,16.6768 16.4010538,16.5448 C16.4950538,16.6648 16.7320538,16.7158 17.1080538,16.7008 C17.5770538,16.6808 17.8150538,16.8548 17.8200538,17.2238 C17.7330538,17.7218 17.5020538,18.0998 17.1310538,18.3608 C16.1990538,18.8908 15.4040538,19.2338 14.7500538,19.3818 C14.6570538,19.5098 14.3770538,19.5818 13.9080538,19.6008 C13.7190538,19.6088 13.5820538,19.9238 13.4990538,20.5408 C13.5140538,21.6478 13.6210538,22.6288 13.8220538,23.4808 C13.8500538,25.4478 13.8780538,27.4168 13.9060538,29.3828 L13.5470538,33.8268 C13.1790538,34.4588 12.8550538,34.7768 12.5730538,34.7889294 C12.3840538,34.7968 12.2380538,34.4338 12.1350538,33.7008 Z" id="Stroke-3" stroke="#FFFFFF" stroke-width="0.865"></path>
                        <path d="M40.8766538,34.1291 C40.9576538,33.2671 41.0436538,32.7091 41.1346538,32.4581 C41.2276538,32.4531 41.3736538,32.8171 41.5736538,33.5461 C41.7736538,34.5221 42.0166538,35.0051 42.2986538,34.9931 C42.3876538,34.7411 42.5236538,34.4291 42.7076538,34.0531 C43.0676538,33.0551 43.2926538,32.2471 43.3776538,31.6271 C43.4646538,31.2541 43.5056538,30.6981 43.4956538,29.9601 C43.5776538,29.2181 43.6646538,28.6621 43.7536538,28.2891 L43.6956538,24.2311 L43.5526538,24.0521 C43.6436538,23.9271 43.6896538,23.8021 43.6876538,23.6771 L43.6826538,23.3091 C43.6706538,22.4511 43.6036538,21.1611 43.4866538,19.4421 C43.3696538,17.8491 43.3056538,16.6211 43.2936538,15.7591 C43.2826538,15.0221 43.2726538,14.3471 43.2646538,13.7311 C43.4496538,13.6011 43.5896538,13.5321 43.6846538,13.5281 C44.1536538,13.5081 44.3916538,13.6841 44.3966538,14.0521 C44.4036538,14.5461 44.4726538,16.1431 44.6056538,18.8411 C44.6316538,20.6861 44.6466538,21.7321 44.6496538,21.9771 L44.6606538,22.7151 L44.8886538,28.7951 C44.7946538,28.9221 44.7516538,29.1091 44.7546538,29.3541 L44.7576538,29.5381 C44.6906538,31.5111 44.1606538,33.8081 43.1646538,36.4331 C43.0696538,36.4371 42.9766538,36.5621 42.8876538,36.8131 L42.7526538,37.1881 L42.6116538,37.1941 C41.6696538,37.1091 41.0916538,36.0871 40.8766538,34.1291 M37.3366538,23.0191 L37.4806538,23.1971 C37.5706538,23.0731 37.7096538,22.9431 37.8976538,22.8121 C38.7336538,22.1631 39.2896538,21.6461 39.5666538,21.2661 L39.7046538,21.0751 C39.7006538,20.8301 39.7926538,20.7661 39.9836538,20.8791 L40.6616538,19.0061 L40.6596538,18.8211 C40.7486538,18.5721 40.6526538,18.3921 40.3696538,18.2801 C40.2746538,18.2831 40.1336538,18.2901 39.9466538,18.2971 C38.3526538,18.6121 37.4746538,19.5701 37.3106538,21.1751 C37.3126538,21.2981 37.3616538,21.5421 37.4616538,21.9071 C37.4646538,22.1551 37.4686538,22.4001 37.4726538,22.6441 L37.4746538,22.8291 C37.3796538,22.8331 37.3346538,22.8981 37.3366538,23.0191 M36.1936538,21.9601 C36.0976538,21.8421 35.9456538,21.1101 35.7396538,19.7631 C35.6366538,19.1531 35.5846538,18.7871 35.5836538,18.6641 C35.5746538,18.0491 35.5656538,17.4361 35.5576538,16.8181 C35.4606538,16.7011 35.3186538,16.6441 35.1316538,16.6521 C35.0376538,16.6561 34.8506538,16.6641 34.5686538,16.6751 C34.2886538,16.8111 34.0536538,16.8811 33.8666538,16.8891 C33.3976538,17.0321 33.1616538,16.7961 33.1526538,16.1801 C33.0526538,15.8151 33.0956538,15.6291 33.2856538,15.6221 C33.7526538,15.4811 34.3126538,15.2091 34.9646538,14.8131 C35.2446538,14.6801 35.5256538,14.6051 35.8076538,14.5931 C35.8996538,14.5891 36.2136538,13.4101 36.7436538,11.0491 C36.9166538,10.0591 37.0486538,9.4391 37.1396538,9.1861 L37.1346538,8.8171 C37.1326538,8.6971 37.1686538,7.9571 37.2436538,6.5991 L37.2256538,5.3081 L37.2226538,5.1231 C37.2176538,4.7541 37.2136538,4.4491 37.2096538,4.2011 C37.0206538,4.2091 36.7876538,4.2191 36.5056538,4.2301 C36.3156538,4.2381 36.0346538,4.2501 35.6606538,4.2651 C35.1906538,4.4091 34.8176538,4.4851 34.5366538,4.4971 C34.1596538,4.5131 33.9706538,4.3361 33.9646538,3.9671 C33.9566538,3.3541 34.6566538,3.0161 36.0646538,2.9571 C36.7226538,3.0531 37.0986538,3.0381 37.1916538,2.9101 C37.3756538,2.6571 37.4666538,2.4081 37.4626538,2.1601 C37.5496538,1.7881 37.7366538,1.5951 38.0186538,1.5841 C38.1106538,1.5801 38.3486538,1.6941 38.7276538,1.9241 C39.2966538,2.2691 39.7676538,2.4341 40.1446538,2.4191 C40.5186538,2.4031 40.9876538,2.2621 41.5476538,1.9911 C41.9196538,1.8551 42.1996538,1.7191 42.3876538,1.5871 C42.5726538,1.4581 42.7126538,1.3891 42.8076538,1.3841 L42.9486538,1.3791 C43.4186538,1.4831 43.6566538,1.6581 43.6606538,1.9031 C43.6706538,2.6411 43.1146538,3.1571 41.9916538,3.4491 L41.8506538,3.4551 L41.1486538,3.6691 C40.0226538,3.8391 39.3196538,3.9291 39.0386538,3.9411 C38.6636538,4.0801 38.4846538,4.7021 38.5016538,5.8081 C38.5026538,5.9321 38.5506538,6.0541 38.6476538,6.1711 C38.8356538,6.2881 39.1206538,6.4611 39.5006538,6.6891 L40.0686538,7.0351 L43.6166538,8.7331 C44.0796538,8.3451 44.3196538,8.6441 44.3346538,9.6261 C44.1546538,10.3711 43.8796538,10.8151 43.5066538,10.9521 C43.2256538,10.9641 43.0796538,10.6011 43.0686538,9.8631 C42.6886538,9.6341 42.4516538,9.5201 42.3596538,9.5241 C42.2646538,9.5281 42.1686538,9.4711 42.0756538,9.3511 C39.9926538,8.3301 38.7176538,7.8291 38.2486538,7.8481 L38.2506538,8.0331 C38.3466538,8.2771 38.3046538,8.5251 38.1206538,8.7771 C38.1256538,9.1461 38.0406538,9.8271 37.8676538,10.8171 C37.6066538,12.3041 37.4806538,13.3571 37.4896538,13.9711 C39.6396538,13.2671 41.7896538,12.5001 43.9396538,11.6721 C44.0326538,11.6681 44.1266538,11.6041 44.2186538,11.4761 L44.5006538,11.4641 C45.8096538,11.0411 47.2146538,10.7971 48.7186538,10.7351 C48.9986538,10.6021 49.2336538,10.7131 49.4276538,11.0751 C49.2526538,12.0681 48.6516538,12.7071 47.6236538,12.9951 C47.3416538,13.0071 47.1496538,12.8311 47.0516538,12.4651 L47.1926538,12.4601 C47.0966538,12.3421 46.9086538,12.2871 46.6266538,12.2991 C46.4376538,12.3071 46.1566538,12.3811 45.7846538,12.5181 C45.2246538,12.7901 44.8026538,12.8681 44.5196538,12.7551 L39.6126538,14.6201 C38.9566538,14.7711 38.0226538,15.1791 36.8116538,15.8441 C36.9056538,15.9641 37.0986538,16.2011 37.3856538,16.5581 C37.3906538,16.9271 37.2056538,17.1831 36.8326538,17.3191 L36.8536538,18.7951 C37.2256538,18.6581 37.5976538,18.2741 37.9646538,17.6421 L40.2076538,16.8101 C40.3006538,16.8061 40.7746538,17.0341 41.6266538,17.4891 C41.9126538,17.7251 42.0086538,18.0271 41.9216538,18.4001 C41.9236538,18.5241 41.9256538,18.6471 41.9266538,18.7681 C41.8356538,19.0201 41.7926538,19.2061 41.7936538,19.3271 L41.7986538,19.6971 C42.0796538,19.5641 42.3596538,19.4881 42.6416538,19.4771 L42.6466538,19.8461 C42.4606538,20.1011 42.2326538,20.4171 41.9556538,20.7971 C39.8276538,23.2241 38.3466538,24.7011 37.5086538,25.2271 L37.6496538,25.2201 C37.8386538,25.3371 37.9356538,25.5171 37.9386538,25.7621 C37.9476538,26.3791 37.7626538,26.6921 37.3886538,26.7071 L37.2486538,26.7131 C36.5776538,25.8821 36.2386538,25.0941 36.2276538,24.3571 C36.2156538,23.4981 36.2046538,22.6971 36.1936538,21.9601 M24.1276538,25.7821 C24.1206538,25.2921 24.2036538,24.6111 24.3806538,23.7421 C24.5606538,23.2451 24.6496538,22.8721 24.6466538,22.6241 C24.6416538,22.2551 24.6806538,21.7631 24.7666538,21.1431 C24.9346538,19.7821 25.0146538,18.7331 25.0036538,17.9951 C24.9876538,16.8891 24.9266538,15.9681 24.8236538,15.2341 C24.7276538,15.1171 24.6266538,14.7531 24.5256538,14.1401 L24.5236538,13.9561 C24.5146538,13.3421 24.7456538,13.1471 25.2196538,13.3731 C25.3126538,13.3691 25.4566538,13.6111 25.6526538,14.0931 C25.8456538,14.4541 25.9886538,14.6331 26.0836538,14.6291 C26.1776538,14.7491 26.3196538,14.8041 26.5086538,14.7961 C26.6976538,14.9111 26.7946538,15.0921 26.7976538,15.3371 C26.7036538,15.3411 26.5616538,15.2861 26.3736538,15.1711 C26.2786538,15.1741 26.1376538,15.1801 25.9506538,15.1881 C25.9646538,16.1731 25.9786538,17.1561 25.9926538,18.1391 L26.0106538,19.4301 C25.9286538,20.2961 25.8886538,20.7901 25.8906538,20.9111 C25.8946538,21.1591 25.8976538,21.3431 25.8986538,21.4641 C25.8076538,21.7161 25.7206538,22.2741 25.6406538,23.1361 L25.4996538,23.1421 C25.5016538,23.2661 25.5036538,23.4501 25.5076538,23.6951 C25.4186538,24.0681 25.3756538,24.3171 25.3766538,24.4391 L25.5176538,24.4321 C25.6126538,24.5531 25.7516538,24.4861 25.9376538,24.2311 L27.4586538,22.1381 C27.4566538,22.0161 27.5946538,21.8261 27.8736538,21.5671 C28.1476538,21.0661 28.2836538,20.6911 28.2796538,20.4431 L27.6906538,18.6211 L27.6876538,18.4381 C27.5856538,17.9521 27.4766538,16.9091 27.3616538,15.3131 C27.1666538,14.9521 27.0196538,14.4691 26.9186538,13.8561 C26.9106538,13.3661 26.8576538,12.9991 26.7616538,12.7551 C26.7596538,12.6351 26.6126538,12.2071 26.3206538,11.4821 C26.0306538,10.8801 25.8356538,10.5191 25.7416538,10.3981 L25.7386538,10.2141 C25.7286538,9.4761 25.8636538,9.1021 26.1456538,9.0901 C26.3326538,9.0821 26.4736538,9.0761 26.5676538,9.0721 C27.5386538,11.3701 28.2926538,14.7851 28.8276538,19.3121 L28.9706538,19.4911 C29.6126538,18.4821 30.0256538,17.7871 30.2096538,17.4101 L30.3486538,17.2191 C30.9026538,16.5821 31.1766538,16.0171 31.1696538,15.5241 L31.1276538,12.5731 C31.1246538,12.3291 31.2636538,12.1981 31.5446538,12.1871 C32.0136538,12.1681 32.3006538,12.5251 32.4056538,13.2591 C32.4236538,14.4891 32.4416538,15.7801 32.4606538,17.1321 C32.4836538,18.7321 32.5016538,19.9611 32.5136538,20.8201 L32.5216538,21.3741 C32.4356538,21.9941 32.3946538,22.3651 32.3966538,22.4861 L32.2576538,22.6761 C32.0736538,23.0531 31.9356538,23.2441 31.8436538,23.2481 C31.4666538,23.2631 31.2736538,22.8411 31.2616538,21.9801 C31.2576538,21.7341 31.2556538,21.5501 31.2536538,21.4261 C31.2516538,21.3051 31.2956538,21.1191 31.3866538,20.8671 C31.3846538,20.7471 31.3816538,20.4981 31.3766538,20.1291 L31.2246538,19.3971 C31.2156538,18.7841 31.2066538,18.1071 31.1956538,17.3691 L31.0526538,17.1911 C30.9596538,17.3181 30.6876538,18.0071 30.2356538,19.2541 C27.7676538,24.0331 25.9226538,26.5701 24.7066538,26.8661 C24.4236538,26.7561 24.2296538,26.3961 24.1276538,25.7821" id="Fill-5" fill="#FFFFFF"></path>
                        <path d="M40.8766538,34.1291 C40.9576538,33.2671 41.0436538,32.7091 41.1346538,32.4581 C41.2276538,32.4531 41.3736538,32.8171 41.5736538,33.5461 C41.7736538,34.5221 42.0166538,35.0051 42.2986538,34.9931 C42.3876538,34.7411 42.5236538,34.4291 42.7076538,34.0531 C43.0676538,33.0551 43.2926538,32.2471 43.3776538,31.6271 C43.4646538,31.2541 43.5056538,30.6981 43.4956538,29.9601 C43.5776538,29.2181 43.6646538,28.6621 43.7536538,28.2891 L43.6956538,24.2311 L43.5526538,24.0521 C43.6436538,23.9271 43.6896538,23.8021 43.6876538,23.6771 L43.6826538,23.3091 C43.6706538,22.4511 43.6036538,21.1611 43.4866538,19.4421 C43.3696538,17.8491 43.3056538,16.6211 43.2936538,15.7591 C43.2826538,15.0221 43.2726538,14.3471 43.2646538,13.7311 C43.4496538,13.6011 43.5896538,13.5321 43.6846538,13.5281 C44.1536538,13.5081 44.3916538,13.6841 44.3966538,14.0521 C44.4036538,14.5461 44.4726538,16.1431 44.6056538,18.8411 C44.6316538,20.6861 44.6466538,21.7321 44.6496538,21.9771 L44.6606538,22.7151 L44.8886538,28.7951 C44.7946538,28.9221 44.7516538,29.1091 44.7546538,29.3541 L44.7576538,29.5381 C44.6906538,31.5111 44.1606538,33.8081 43.1646538,36.4331 C43.0696538,36.4371 42.9766538,36.5621 42.8876538,36.8131 L42.7526538,37.1881 L42.6116538,37.1941 C41.6696538,37.1091 41.0916538,36.0871 40.8766538,34.1291 Z M37.3366538,23.0191 L37.4806538,23.1971 C37.5706538,23.0731 37.7096538,22.9431 37.8976538,22.8121 C38.7336538,22.1631 39.2896538,21.6461 39.5666538,21.2661 L39.7046538,21.0751 C39.7006538,20.8301 39.7926538,20.7661 39.9836538,20.8791 L40.6616538,19.0061 L40.6596538,18.8211 C40.7486538,18.5721 40.6526538,18.3921 40.3696538,18.2801 C40.2746538,18.2831 40.1336538,18.2901 39.9466538,18.2971 C38.3526538,18.6121 37.4746538,19.5701 37.3106538,21.1751 C37.3126538,21.2981 37.3616538,21.5421 37.4616538,21.9071 C37.4646538,22.1551 37.4686538,22.4001 37.4726538,22.6441 L37.4746538,22.8291 C37.3796538,22.8331 37.3346538,22.8981 37.3366538,23.0191 Z M36.1936538,21.9601 C36.0976538,21.8421 35.9456538,21.1101 35.7396538,19.7631 C35.6366538,19.1531 35.5846538,18.7871 35.5836538,18.6641 C35.5746538,18.0491 35.5656538,17.4361 35.5576538,16.8181 C35.4606538,16.7011 35.3186538,16.6441 35.1316538,16.6521 C35.0376538,16.6561 34.8506538,16.6641 34.5686538,16.6751 C34.2886538,16.8111 34.0536538,16.8811 33.8666538,16.8891 C33.3976538,17.0321 33.1616538,16.7961 33.1526538,16.1801 C33.0526538,15.8151 33.0956538,15.6291 33.2856538,15.6221 C33.7526538,15.4811 34.3126538,15.2091 34.9646538,14.8131 C35.2446538,14.6801 35.5256538,14.6051 35.8076538,14.5931 C35.8996538,14.5891 36.2136538,13.4101 36.7436538,11.0491 C36.9166538,10.0591 37.0486538,9.4391 37.1396538,9.1861 L37.1346538,8.8171 C37.1326538,8.6971 37.1686538,7.9571 37.2436538,6.5991 L37.2256538,5.3081 L37.2226538,5.1231 C37.2176538,4.7541 37.2136538,4.4491 37.2096538,4.2011 C37.0206538,4.2091 36.7876538,4.2191 36.5056538,4.2301 C36.3156538,4.2381 36.0346538,4.2501 35.6606538,4.2651 C35.1906538,4.4091 34.8176538,4.4851 34.5366538,4.4971 C34.1596538,4.5131 33.9706538,4.3361 33.9646538,3.9671 C33.9566538,3.3541 34.6566538,3.0161 36.0646538,2.9571 C36.7226538,3.0531 37.0986538,3.0381 37.1916538,2.9101 C37.3756538,2.6571 37.4666538,2.4081 37.4626538,2.1601 C37.5496538,1.7881 37.7366538,1.5951 38.0186538,1.5841 C38.1106538,1.5801 38.3486538,1.6941 38.7276538,1.9241 C39.2966538,2.2691 39.7676538,2.4341 40.1446538,2.4191 C40.5186538,2.4031 40.9876538,2.2621 41.5476538,1.9911 C41.9196538,1.8551 42.1996538,1.7191 42.3876538,1.5871 C42.5726538,1.4581 42.7126538,1.3891 42.8076538,1.3841 L42.9486538,1.3791 C43.4186538,1.4831 43.6566538,1.6581 43.6606538,1.9031 C43.6706538,2.6411 43.1146538,3.1571 41.9916538,3.4491 L41.8506538,3.4551 L41.1486538,3.6691 C40.0226538,3.8391 39.3196538,3.9291 39.0386538,3.9411 C38.6636538,4.0801 38.4846538,4.7021 38.5016538,5.8081 C38.5026538,5.9321 38.5506538,6.0541 38.6476538,6.1711 C38.8356538,6.2881 39.1206538,6.4611 39.5006538,6.6891 L40.0686538,7.0351 L43.6166538,8.7331 C44.0796538,8.3451 44.3196538,8.6441 44.3346538,9.6261 C44.1546538,10.3711 43.8796538,10.8151 43.5066538,10.9521 C43.2256538,10.9641 43.0796538,10.6011 43.0686538,9.8631 C42.6886538,9.6341 42.4516538,9.5201 42.3596538,9.5241 C42.2646538,9.5281 42.1686538,9.4711 42.0756538,9.3511 C39.9926538,8.3301 38.7176538,7.8291 38.2486538,7.8481 L38.2506538,8.0331 C38.3466538,8.2771 38.3046538,8.5251 38.1206538,8.7771 C38.1256538,9.1461 38.0406538,9.8271 37.8676538,10.8171 C37.6066538,12.3041 37.4806538,13.3571 37.4896538,13.9711 C39.6396538,13.2671 41.7896538,12.5001 43.9396538,11.6721 C44.0326538,11.6681 44.1266538,11.6041 44.2186538,11.4761 L44.5006538,11.4641 C45.8096538,11.0411 47.2146538,10.7971 48.7186538,10.7351 C48.9986538,10.6021 49.2336538,10.7131 49.4276538,11.0751 C49.2526538,12.0681 48.6516538,12.7071 47.6236538,12.9951 C47.3416538,13.0071 47.1496538,12.8311 47.0516538,12.4651 L47.1926538,12.4601 C47.0966538,12.3421 46.9086538,12.2871 46.6266538,12.2991 C46.4376538,12.3071 46.1566538,12.3811 45.7846538,12.5181 C45.2246538,12.7901 44.8026538,12.8681 44.5196538,12.7551 L39.6126538,14.6201 C38.9566538,14.7711 38.0226538,15.1791 36.8116538,15.8441 C36.9056538,15.9641 37.0986538,16.2011 37.3856538,16.5581 C37.3906538,16.9271 37.2056538,17.1831 36.8326538,17.3191 L36.8536538,18.7951 C37.2256538,18.6581 37.5976538,18.2741 37.9646538,17.6421 L40.2076538,16.8101 C40.3006538,16.8061 40.7746538,17.0341 41.6266538,17.4891 C41.9126538,17.7251 42.0086538,18.0271 41.9216538,18.4001 C41.9236538,18.5241 41.9256538,18.6471 41.9266538,18.7681 C41.8356538,19.0201 41.7926538,19.2061 41.7936538,19.3271 L41.7986538,19.6971 C42.0796538,19.5641 42.3596538,19.4881 42.6416538,19.4771 L42.6466538,19.8461 C42.4606538,20.1011 42.2326538,20.4171 41.9556538,20.7971 C39.8276538,23.2241 38.3466538,24.7011 37.5086538,25.2271 L37.6496538,25.2201 C37.8386538,25.3371 37.9356538,25.5171 37.9386538,25.7621 C37.9476538,26.3791 37.7626538,26.6921 37.3886538,26.7071 L37.2486538,26.7131 C36.5776538,25.8821 36.2386538,25.0941 36.2276538,24.3571 C36.2156538,23.4981 36.2046538,22.6971 36.1936538,21.9601 Z M24.1276538,25.7821 C24.1206538,25.2921 24.2036538,24.6111 24.3806538,23.7421 C24.5606538,23.2451 24.6496538,22.8721 24.6466538,22.6241 C24.6416538,22.2551 24.6806538,21.7631 24.7666538,21.1431 C24.9346538,19.7821 25.0146538,18.7331 25.0036538,17.9951 C24.9876538,16.8891 24.9266538,15.9681 24.8236538,15.2341 C24.7276538,15.1171 24.6266538,14.7531 24.5256538,14.1401 L24.5236538,13.9561 C24.5146538,13.3421 24.7456538,13.1471 25.2196538,13.3731 C25.3126538,13.3691 25.4566538,13.6111 25.6526538,14.0931 C25.8456538,14.4541 25.9886538,14.6331 26.0836538,14.6291 C26.1776538,14.7491 26.3196538,14.8041 26.5086538,14.7961 C26.6976538,14.9111 26.7946538,15.0921 26.7976538,15.3371 C26.7036538,15.3411 26.5616538,15.2861 26.3736538,15.1711 C26.2786538,15.1741 26.1376538,15.1801 25.9506538,15.1881 C25.9646538,16.1731 25.9786538,17.1561 25.9926538,18.1391 L26.0106538,19.4301 C25.9286538,20.2961 25.8886538,20.7901 25.8906538,20.9111 C25.8946538,21.1591 25.8976538,21.3431 25.8986538,21.4641 C25.8076538,21.7161 25.7206538,22.2741 25.6406538,23.1361 L25.4996538,23.1421 C25.5016538,23.2661 25.5036538,23.4501 25.5076538,23.6951 C25.4186538,24.0681 25.3756538,24.3171 25.3766538,24.4391 L25.5176538,24.4321 C25.6126538,24.5531 25.7516538,24.4861 25.9376538,24.2311 L27.4586538,22.1381 C27.4566538,22.0161 27.5946538,21.8261 27.8736538,21.5671 C28.1476538,21.0661 28.2836538,20.6911 28.2796538,20.4431 L27.6906538,18.6211 L27.6876538,18.4381 C27.5856538,17.9521 27.4766538,16.9091 27.3616538,15.3131 C27.1666538,14.9521 27.0196538,14.4691 26.9186538,13.8561 C26.9106538,13.3661 26.8576538,12.9991 26.7616538,12.7551 C26.7596538,12.6351 26.6126538,12.2071 26.3206538,11.4821 C26.0306538,10.8801 25.8356538,10.5191 25.7416538,10.3981 L25.7386538,10.2141 C25.7286538,9.4761 25.8636538,9.1021 26.1456538,9.0901 C26.3326538,9.0821 26.4736538,9.0761 26.5676538,9.0721 C27.5386538,11.3701 28.2926538,14.7851 28.8276538,19.3121 L28.9706538,19.4911 C29.6126538,18.4821 30.0256538,17.7871 30.2096538,17.4101 L30.3486538,17.2191 C30.9026538,16.5821 31.1766538,16.0171 31.1696538,15.5241 L31.1276538,12.5731 C31.1246538,12.3291 31.2636538,12.1981 31.5446538,12.1871 C32.0136538,12.1681 32.3006538,12.5251 32.4056538,13.2591 C32.4236538,14.4891 32.4416538,15.7801 32.4606538,17.1321 C32.4836538,18.7321 32.5016538,19.9611 32.5136538,20.8201 L32.5216538,21.3741 C32.4356538,21.9941 32.3946538,22.3651 32.3966538,22.4861 L32.2576538,22.6761 C32.0736538,23.0531 31.9356538,23.2441 31.8436538,23.2481 C31.4666538,23.2631 31.2736538,22.8411 31.2616538,21.9801 C31.2576538,21.7341 31.2556538,21.5501 31.2536538,21.4261 C31.2516538,21.3051 31.2956538,21.1191 31.3866538,20.8671 C31.3846538,20.7471 31.3816538,20.4981 31.3766538,20.1291 L31.2246538,19.3971 C31.2156538,18.7841 31.2066538,18.1071 31.1956538,17.3691 L31.0526538,17.1911 C30.9596538,17.3181 30.6876538,18.0071 30.2356538,19.2541 C27.7676538,24.0331 25.9226538,26.5701 24.7066538,26.8661 C24.4236538,26.7561 24.2296538,26.3961 24.1276538,25.7821 Z" id="Stroke-7" stroke="#FFFFFF" stroke-width="0.865"></path>
                        <path d="M77.5743538,33.7404 C77.3813538,33.5034 77.0473538,33.0874 76.5703538,32.4904 C75.3273538,31.0654 74.2813538,30.0654 73.4273538,29.4844 C73.3323538,29.4874 73.1903538,29.4334 73.0013538,29.3164 C72.1493538,28.8624 71.7223538,28.5704 71.7213538,28.4474 C71.9043538,28.1944 72.2783538,27.9934 72.8403538,27.8464 C74.0593538,27.7954 75.8693538,29.5064 78.2683538,32.9734 C78.5553538,33.3294 78.7453538,33.5694 78.8423538,33.6884 C79.4163538,34.4014 79.7033538,34.8194 79.7053538,34.9434 L79.8493538,35.1224 C79.7543538,35.1254 79.6623538,35.3144 79.5753538,35.6874 C79.3913538,36.0634 79.2533538,36.2534 79.1603538,36.2584 C78.6863538,36.0294 78.1583538,35.1924 77.5743538,33.7404 L77.5743538,33.7404 Z M70.4183538,16.1374 C70.4273538,16.7534 70.4363538,17.4284 70.4473538,18.1664 L70.5883538,18.1594 L73.3733538,15.8294 C73.3713538,15.7084 73.5103538,15.5184 73.7883538,15.2594 C74.2533538,14.9944 74.4863538,14.7404 74.4823538,14.4914 C74.4753538,14.0014 73.7183538,13.7244 72.2153538,13.6634 L71.9333538,13.6754 C71.6543538,13.8104 71.1843538,13.9534 70.5313538,14.1024 L70.3923538,14.2924 C70.3953538,14.5404 70.4033538,15.0304 70.4133538,15.7674 L70.4183538,16.1374 Z M66.6343538,17.5864 C66.6363538,17.7104 66.6843538,17.8924 66.7823538,18.1344 C66.8803538,18.4984 66.9323538,18.7444 66.9333538,18.8654 C66.9423538,19.4824 66.9523538,20.1564 66.9633538,20.8934 C67.0553538,20.8904 67.1493538,20.8254 67.2413538,20.6984 L67.3823538,20.6924 C67.4733538,20.5674 67.8003538,20.3054 68.3583538,19.9134 C68.9143538,19.4004 69.2393538,19.1384 69.3333538,19.1344 C69.4203538,18.7614 69.4643538,18.3914 69.4583538,18.0224 C69.4273538,15.8084 69.2693538,14.5874 68.9843538,14.3504 C68.8943538,14.7234 68.5713538,15.1064 68.0133538,15.4994 C67.0843538,16.2754 66.6253538,16.9724 66.6343538,17.5864 L66.6343538,17.5864 Z M62.4823538,32.8914 C62.4733538,32.2764 62.5613538,31.9644 62.7513538,31.9564 C62.8433538,31.9534 62.9403538,32.1334 63.0403538,32.4984 C63.2403538,33.3524 63.5743538,33.7684 64.0443538,33.7484 C66.5683538,32.7844 68.3453538,28.8964 69.3753538,22.0854 C69.3723538,21.8414 69.3213538,21.6584 69.2263538,21.5384 C68.9483538,21.7974 68.5753538,21.9984 68.1083538,22.1384 L67.9673538,22.1444 C67.9653538,22.0234 67.9173538,22.0854 67.8283538,22.3344 L64.8843538,23.3794 C64.5083538,23.3944 64.0413538,23.5984 63.4833538,23.9904 C63.2013538,24.0034 62.7313538,24.0864 62.0773538,24.2344 C60.1023538,24.0704 59.0603538,23.6214 58.9573538,22.8874 C59.0433538,22.3934 59.2293538,22.1384 59.5103538,22.1264 C59.7923538,22.1154 60.2163538,22.1604 60.7813538,22.2584 C61.2513538,22.3634 61.6293538,22.4074 61.9103538,22.3954 C62.0973538,22.3884 62.4243538,22.3144 62.8933538,22.1704 C63.2663538,22.0334 63.5953538,21.9564 63.8773538,21.9454 C64.7223538,21.9104 65.2833538,21.7654 65.5623538,21.5064 L65.5593538,21.3224 C65.5573538,21.2004 65.4093538,20.7134 65.1163538,19.8634 C64.8253538,19.2614 64.6793538,18.8984 64.6773538,18.7744 C64.4833538,18.4134 64.2873538,17.8084 64.0883538,16.9534 C63.9883538,16.5884 63.8893538,16.2874 63.7933538,16.0424 C63.7893538,15.7984 63.7353538,15.3714 63.6343538,14.7584 C63.5313538,14.1484 63.4293538,13.7234 63.3343538,13.4784 C63.3303538,13.2334 63.2773538,12.9274 63.1793538,12.5634 C62.9803538,11.8324 62.8793538,11.2224 62.8713538,10.7294 C62.7723538,10.3644 62.9103538,10.1744 63.2863538,10.1584 C63.5683538,10.1474 63.8043538,10.3214 63.9983538,10.6824 C64.0953538,10.9274 64.2953538,11.7174 64.5963538,13.0574 C64.8973538,14.4004 65.0493538,15.1924 65.0533538,15.4364 C65.0543538,15.5614 65.1033538,15.7444 65.2013538,15.9854 C65.2073538,16.3534 65.2563538,16.5994 65.3533538,16.7164 C65.5383538,16.5874 65.7693538,16.2694 66.0443538,15.7654 C66.2283538,15.5124 66.3663538,15.3224 66.4593538,15.1944 C66.7353538,14.8134 66.9193538,14.5614 67.0113538,14.4334 L67.0063538,14.0644 C68.1263538,13.5284 68.7273538,12.8864 68.8113538,12.1444 C68.7943538,10.9154 68.4493538,9.9444 67.7833538,9.2344 L67.7813538,9.0504 C67.7743538,8.5604 68.0033538,8.3024 68.4743538,8.2824 C68.8483538,8.2664 69.2323538,8.7444 69.6223538,9.7114 C69.7223538,10.1994 69.8213538,10.5044 69.9173538,10.6214 C70.0083538,10.4964 70.1923538,10.1194 70.4653538,9.4914 C70.7383538,8.8654 70.8733538,8.4904 70.8713538,8.3674 C70.9623538,8.2424 71.0533538,7.9914 71.1433538,7.6184 C71.5973538,6.6154 71.8693538,5.8654 71.9563538,5.3694 L71.9533538,5.1844 L71.3883538,5.0244 L65.4723538,5.2704 C65.4933538,6.7454 66.0283538,8.1394 67.0813538,9.4474 L67.5073538,9.6144 C67.6943538,9.6074 67.7893538,9.6664 67.7913538,9.7874 C67.7953538,10.0344 67.6563538,10.1614 67.3743538,10.1734 C66.5273538,10.0874 65.6683538,9.1374 64.7973538,7.3284 C64.4993538,6.2334 64.1583538,5.5084 63.7793538,5.1564 C63.5883538,5.0424 63.1183538,4.9994 62.3683538,5.0304 C60.8663538,5.2164 60.1103538,4.8184 60.0963538,3.8324 C60.0953538,3.7124 60.1853538,3.5844 60.3723538,3.4514 C60.4653538,3.4484 60.6063538,3.4424 60.7953538,3.4344 C61.0773538,3.4234 61.5003538,3.4684 62.0653538,3.5664 C62.6323538,3.7904 63.1033538,3.8924 63.4793538,3.8764 C63.4773538,3.7554 63.4273538,3.5734 63.3303538,3.3294 L63.3253538,2.9604 C63.3183538,2.4704 63.5963538,2.2114 64.1603538,2.1874 C64.4423538,2.1764 64.6793538,2.4744 64.8773538,3.0804 C64.8833538,3.4494 64.9323538,3.6954 65.0293538,3.8124 C65.1233538,3.9324 65.3123538,3.9244 65.5923538,3.7884 L65.7333538,3.7824 C65.8253538,3.7794 66.2013538,3.7634 66.8593538,3.7364 C67.5173538,3.8324 67.8943538,3.8784 67.9893538,3.8734 C68.5523538,3.8504 69.2573538,3.8214 70.1023538,3.7864 C70.8523538,3.7544 71.3693538,3.7334 71.6513538,3.7214 L72.3523538,3.5084 C72.5403538,3.5004 72.7233538,3.2474 72.9063538,2.7464 C73.0863538,2.2484 73.2233538,1.9954 73.3183538,1.99127939 C73.4103538,1.9884 73.6473538,2.0414 74.0253538,2.1464 L73.7613538,3.4494 C73.9483538,3.4414 74.1363538,3.4334 74.3243538,3.4254 C74.6063538,3.4144 75.0273538,3.2754 75.5873538,3.0044 C76.0543538,2.8634 76.4293538,2.7844 76.7113538,2.7734 C77.1803538,2.7534 77.4183538,2.9284 77.4233538,3.2974 C77.4283538,3.6664 77.1513538,3.9254 76.5893538,4.0704 C76.4963538,4.1984 76.4023538,4.2624 76.3093538,4.2664 C76.2153538,4.2704 75.7933538,4.3514 75.0453538,4.5034 C74.2943538,4.6584 73.8253538,4.7384 73.6383538,4.7454 C73.5473538,4.9984 73.4093538,5.1884 73.2243538,5.3174 C72.8643538,6.4394 72.4573538,7.5634 72.0033538,8.6894 C71.9123538,8.9414 71.6833538,9.3814 71.3183538,10.0094 C70.6773538,11.2674 70.3603538,12.0194 70.3633538,12.2644 C70.2723538,12.5154 70.4143538,12.6314 70.7913538,12.6154 C70.8833538,12.6114 70.9783538,12.6074 71.0733538,12.6034 L71.9183538,12.5684 C72.7613538,12.4124 73.2293538,12.3294 73.3243538,12.3254 C73.9833538,12.5464 74.3623538,12.7154 74.4583538,12.8314 L74.5993538,12.8264 C75.3573538,13.2874 75.7393538,13.7014 75.7443538,14.0704 C75.7463538,14.1944 75.7483538,14.3174 75.7503538,14.4394 C75.6603538,14.8114 75.4793538,15.2524 75.2043538,15.7534 L75.0663538,15.9444 C74.3233538,16.5924 73.7663538,17.1054 73.3973538,17.4894 C73.3023538,17.4934 72.9783538,17.7544 72.4213538,18.2684 C71.8633538,18.6594 71.5363538,18.9224 71.4463538,19.0474 L71.1673538,19.2434 C70.8873538,19.3794 70.7493538,19.5694 70.7523538,19.8144 L70.7553538,19.9984 C71.2223538,19.8584 71.9703538,19.7014 73.0033538,19.5354 C74.0333538,19.3714 74.7823538,19.2174 75.2523538,19.0734 C75.4373538,18.9444 75.5763538,18.8144 75.6693538,18.6864 C75.8563538,18.6784 76.0923538,18.6684 76.3733538,18.6574 C76.6553538,18.6464 76.8883538,18.6364 77.0773538,18.6284 C77.2683538,18.8684 77.3653538,19.0494 77.3673538,19.1694 C77.5633538,19.7794 77.4283538,20.2144 76.9633538,20.4784 C76.7743538,20.4864 76.4453538,20.4394 75.9743538,20.3354 L75.5523538,20.3524 C75.4573538,20.3574 74.9893538,20.4394 74.1463538,20.5954 L73.4443538,20.8084 C73.3493538,20.8134 73.2083538,20.8194 73.0223538,20.8264 C71.7043538,20.7614 70.9093538,20.9774 70.6353538,21.4794 C70.5443538,21.7314 70.3693538,22.5974 70.1083538,24.0844 C69.9353538,25.1994 69.8033538,25.8824 69.7153538,26.1314 C69.4503538,27.3734 69.1833538,28.4314 68.9143538,29.3024 C67.3683538,33.0564 65.8953538,35.0244 64.4883538,35.2064 C64.1103538,35.0984 63.5883538,34.7534 62.9233538,34.1644 L62.6393538,33.9914 C62.5393538,33.6264 62.4873538,33.2604 62.4823538,32.8914 L62.4823538,32.8914 Z" id="Fill-9" fill="#FFFFFF"></path>
                        <path d="M77.5743538,33.7404 C77.3813538,33.5034 77.0473538,33.0874 76.5703538,32.4904 C75.3273538,31.0654 74.2813538,30.0654 73.4273538,29.4844 C73.3323538,29.4874 73.1903538,29.4334 73.0013538,29.3164 C72.1493538,28.8624 71.7223538,28.5704 71.7213538,28.4474 C71.9043538,28.1944 72.2783538,27.9934 72.8403538,27.8464 C74.0593538,27.7954 75.8693538,29.5064 78.2683538,32.9734 C78.5553538,33.3294 78.7453538,33.5694 78.8423538,33.6884 C79.4163538,34.4014 79.7033538,34.8194 79.7053538,34.9434 L79.8493538,35.1224 C79.7543538,35.1254 79.6623538,35.3144 79.5753538,35.6874 C79.3913538,36.0634 79.2533538,36.2534 79.1603538,36.2584 C78.6863538,36.0294 78.1583538,35.1924 77.5743538,33.7404 Z M70.4183538,16.1374 C70.4273538,16.7534 70.4363538,17.4284 70.4473538,18.1664 L70.5883538,18.1594 L73.3733538,15.8294 C73.3713538,15.7084 73.5103538,15.5184 73.7883538,15.2594 C74.2533538,14.9944 74.4863538,14.7404 74.4823538,14.4914 C74.4753538,14.0014 73.7183538,13.7244 72.2153538,13.6634 L71.9333538,13.6754 C71.6543538,13.8104 71.1843538,13.9534 70.5313538,14.1024 L70.3923538,14.2924 C70.3953538,14.5404 70.4033538,15.0304 70.4133538,15.7674 L70.4183538,16.1374 Z M66.6343538,17.5864 C66.6363538,17.7104 66.6843538,17.8924 66.7823538,18.1344 C66.8803538,18.4984 66.9323538,18.7444 66.9333538,18.8654 C66.9423538,19.4824 66.9523538,20.1564 66.9633538,20.8934 C67.0553538,20.8904 67.1493538,20.8254 67.2413538,20.6984 L67.3823538,20.6924 C67.4733538,20.5674 67.8003538,20.3054 68.3583538,19.9134 C68.9143538,19.4004 69.2393538,19.1384 69.3333538,19.1344 C69.4203538,18.7614 69.4643538,18.3914 69.4583538,18.0224 C69.4273538,15.8084 69.2693538,14.5874 68.9843538,14.3504 C68.8943538,14.7234 68.5713538,15.1064 68.0133538,15.4994 C67.0843538,16.2754 66.6253538,16.9724 66.6343538,17.5864 Z M62.4823538,32.8914 C62.4733538,32.2764 62.5613538,31.9644 62.7513538,31.9564 C62.8433538,31.9534 62.9403538,32.1334 63.0403538,32.4984 C63.2403538,33.3524 63.5743538,33.7684 64.0443538,33.7484 C66.5683538,32.7844 68.3453538,28.8964 69.3753538,22.0854 C69.3723538,21.8414 69.3213538,21.6584 69.2263538,21.5384 C68.9483538,21.7974 68.5753538,21.9984 68.1083538,22.1384 L67.9673538,22.1444 C67.9653538,22.0234 67.9173538,22.0854 67.8283538,22.3344 L64.8843538,23.3794 C64.5083538,23.3944 64.0413538,23.5984 63.4833538,23.9904 C63.2013538,24.0034 62.7313538,24.0864 62.0773538,24.2344 C60.1023538,24.0704 59.0603538,23.6214 58.9573538,22.8874 C59.0433538,22.3934 59.2293538,22.1384 59.5103538,22.1264 C59.7923538,22.1154 60.2163538,22.1604 60.7813538,22.2584 C61.2513538,22.3634 61.6293538,22.4074 61.9103538,22.3954 C62.0973538,22.3884 62.4243538,22.3144 62.8933538,22.1704 C63.2663538,22.0334 63.5953538,21.9564 63.8773538,21.9454 C64.7223538,21.9104 65.2833538,21.7654 65.5623538,21.5064 L65.5593538,21.3224 C65.5573538,21.2004 65.4093538,20.7134 65.1163538,19.8634 C64.8253538,19.2614 64.6793538,18.8984 64.6773538,18.7744 C64.4833538,18.4134 64.2873538,17.8084 64.0883538,16.9534 C63.9883538,16.5884 63.8893538,16.2874 63.7933538,16.0424 C63.7893538,15.7984 63.7353538,15.3714 63.6343538,14.7584 C63.5313538,14.1484 63.4293538,13.7234 63.3343538,13.4784 C63.3303538,13.2334 63.2773538,12.9274 63.1793538,12.5634 C62.9803538,11.8324 62.8793538,11.2224 62.8713538,10.7294 C62.7723538,10.3644 62.9103538,10.1744 63.2863538,10.1584 C63.5683538,10.1474 63.8043538,10.3214 63.9983538,10.6824 C64.0953538,10.9274 64.2953538,11.7174 64.5963538,13.0574 C64.8973538,14.4004 65.0493538,15.1924 65.0533538,15.4364 C65.0543538,15.5614 65.1033538,15.7444 65.2013538,15.9854 C65.2073538,16.3534 65.2563538,16.5994 65.3533538,16.7164 C65.5383538,16.5874 65.7693538,16.2694 66.0443538,15.7654 C66.2283538,15.5124 66.3663538,15.3224 66.4593538,15.1944 C66.7353538,14.8134 66.9193538,14.5614 67.0113538,14.4334 L67.0063538,14.0644 C68.1263538,13.5284 68.7273538,12.8864 68.8113538,12.1444 C68.7943538,10.9154 68.4493538,9.9444 67.7833538,9.2344 L67.7813538,9.0504 C67.7743538,8.5604 68.0033538,8.3024 68.4743538,8.2824 C68.8483538,8.2664 69.2323538,8.7444 69.6223538,9.7114 C69.7223538,10.1994 69.8213538,10.5044 69.9173538,10.6214 C70.0083538,10.4964 70.1923538,10.1194 70.4653538,9.4914 C70.7383538,8.8654 70.8733538,8.4904 70.8713538,8.3674 C70.9623538,8.2424 71.0533538,7.9914 71.1433538,7.6184 C71.5973538,6.6154 71.8693538,5.8654 71.9563538,5.3694 L71.9533538,5.1844 L71.3883538,5.0244 L65.4723538,5.2704 C65.4933538,6.7454 66.0283538,8.1394 67.0813538,9.4474 L67.5073538,9.6144 C67.6943538,9.6074 67.7893538,9.6664 67.7913538,9.7874 C67.7953538,10.0344 67.6563538,10.1614 67.3743538,10.1734 C66.5273538,10.0874 65.6683538,9.1374 64.7973538,7.3284 C64.4993538,6.2334 64.1583538,5.5084 63.7793538,5.1564 C63.5883538,5.0424 63.1183538,4.9994 62.3683538,5.0304 C60.8663538,5.2164 60.1103538,4.8184 60.0963538,3.8324 C60.0953538,3.7124 60.1853538,3.5844 60.3723538,3.4514 C60.4653538,3.4484 60.6063538,3.4424 60.7953538,3.4344 C61.0773538,3.4234 61.5003538,3.4684 62.0653538,3.5664 C62.6323538,3.7904 63.1033538,3.8924 63.4793538,3.8764 C63.4773538,3.7554 63.4273538,3.5734 63.3303538,3.3294 L63.3253538,2.9604 C63.3183538,2.4704 63.5963538,2.2114 64.1603538,2.1874 C64.4423538,2.1764 64.6793538,2.4744 64.8773538,3.0804 C64.8833538,3.4494 64.9323538,3.6954 65.0293538,3.8124 C65.1233538,3.9324 65.3123538,3.9244 65.5923538,3.7884 L65.7333538,3.7824 C65.8253538,3.7794 66.2013538,3.7634 66.8593538,3.7364 C67.5173538,3.8324 67.8943538,3.8784 67.9893538,3.8734 C68.5523538,3.8504 69.2573538,3.8214 70.1023538,3.7864 C70.8523538,3.7544 71.3693538,3.7334 71.6513538,3.7214 L72.3523538,3.5084 C72.5403538,3.5004 72.7233538,3.2474 72.9063538,2.7464 C73.0863538,2.2484 73.2233538,1.9954 73.3183538,1.99127939 C73.4103538,1.9884 73.6473538,2.0414 74.0253538,2.1464 L73.7613538,3.4494 C73.9483538,3.4414 74.1363538,3.4334 74.3243538,3.4254 C74.6063538,3.4144 75.0273538,3.2754 75.5873538,3.0044 C76.0543538,2.8634 76.4293538,2.7844 76.7113538,2.7734 C77.1803538,2.7534 77.4183538,2.9284 77.4233538,3.2974 C77.4283538,3.6664 77.1513538,3.9254 76.5893538,4.0704 C76.4963538,4.1984 76.4023538,4.2624 76.3093538,4.2664 C76.2153538,4.2704 75.7933538,4.3514 75.0453538,4.5034 C74.2943538,4.6584 73.8253538,4.7384 73.6383538,4.7454 C73.5473538,4.9984 73.4093538,5.1884 73.2243538,5.3174 C72.8643538,6.4394 72.4573538,7.5634 72.0033538,8.6894 C71.9123538,8.9414 71.6833538,9.3814 71.3183538,10.0094 C70.6773538,11.2674 70.3603538,12.0194 70.3633538,12.2644 C70.2723538,12.5154 70.4143538,12.6314 70.7913538,12.6154 C70.8833538,12.6114 70.9783538,12.6074 71.0733538,12.6034 L71.9183538,12.5684 C72.7613538,12.4124 73.2293538,12.3294 73.3243538,12.3254 C73.9833538,12.5464 74.3623538,12.7154 74.4583538,12.8314 L74.5993538,12.8264 C75.3573538,13.2874 75.7393538,13.7014 75.7443538,14.0704 C75.7463538,14.1944 75.7483538,14.3174 75.7503538,14.4394 C75.6603538,14.8114 75.4793538,15.2524 75.2043538,15.7534 L75.0663538,15.9444 C74.3233538,16.5924 73.7663538,17.1054 73.3973538,17.4894 C73.3023538,17.4934 72.9783538,17.7544 72.4213538,18.2684 C71.8633538,18.6594 71.5363538,18.9224 71.4463538,19.0474 L71.1673538,19.2434 C70.8873538,19.3794 70.7493538,19.5694 70.7523538,19.8144 L70.7553538,19.9984 C71.2223538,19.8584 71.9703538,19.7014 73.0033538,19.5354 C74.0333538,19.3714 74.7823538,19.2174 75.2523538,19.0734 C75.4373538,18.9444 75.5763538,18.8144 75.6693538,18.6864 C75.8563538,18.6784 76.0923538,18.6684 76.3733538,18.6574 C76.6553538,18.6464 76.8883538,18.6364 77.0773538,18.6284 C77.2683538,18.8684 77.3653538,19.0494 77.3673538,19.1694 C77.5633538,19.7794 77.4283538,20.2144 76.9633538,20.4784 C76.7743538,20.4864 76.4453538,20.4394 75.9743538,20.3354 L75.5523538,20.3524 C75.4573538,20.3574 74.9893538,20.4394 74.1463538,20.5954 L73.4443538,20.8084 C73.3493538,20.8134 73.2083538,20.8194 73.0223538,20.8264 C71.7043538,20.7614 70.9093538,20.9774 70.6353538,21.4794 C70.5443538,21.7314 70.3693538,22.5974 70.1083538,24.0844 C69.9353538,25.1994 69.8033538,25.8824 69.7153538,26.1314 C69.4503538,27.3734 69.1833538,28.4314 68.9143538,29.3024 C67.3683538,33.0564 65.8953538,35.0244 64.4883538,35.2064 C64.1103538,35.0984 63.5883538,34.7534 62.9233538,34.1644 L62.6393538,33.9914 C62.5393538,33.6264 62.4873538,33.2604 62.4823538,32.8914 Z" id="Stroke-11" stroke="#FFFFFF" stroke-width="0.865"></path>
                        <path d="M102.235054,35.49 C102.327054,35.487 102.374054,35.361 102.371054,35.115 C103.109054,34.226 103.521054,33.47 103.607054,32.85 C103.596054,32.112 103.162054,31.332 102.305054,30.505 L102.297054,29.951 C102.484054,29.944 102.674054,30.12 102.868054,30.481 C103.061054,30.842 103.204054,31.021 103.298054,31.017 C103.766054,30.876 104.001054,30.866 104.003054,30.988 C104.570054,31.213 104.907054,31.812 105.015054,32.791 C105.017054,32.916 105.019054,33.039 105.020054,33.16 L104.746054,33.725 C104.564054,34.226 104.427054,34.476 104.335054,34.48 C103.787054,35.61 103.277054,36.185 102.809054,36.205 C102.527054,36.216 102.334054,35.976 102.235054,35.49 M100.778054,12.299 C100.594054,12.675 100.506054,13.048 100.512054,13.417 C100.886054,13.401 101.072054,13.209 101.068054,12.84 C101.064054,12.595 100.966054,12.415 100.778054,12.299 M98.5040538,20.883 C98.4110538,21.011 98.3200538,21.322 98.2350538,21.816 C98.3280538,21.812 98.3770538,21.874 98.3790538,21.994 C98.9410538,21.85 99.1250538,21.657 98.9340538,21.418 C99.2160538,21.406 99.3590538,21.524 99.3620538,21.769 C99.5490538,21.761 99.7360538,21.754 99.9250538,21.746 C100.112054,21.738 100.299054,21.67 100.486054,21.537 C100.673054,21.53 100.814054,21.524 100.909054,21.52 C101.096054,21.512 101.471054,21.437 102.033054,21.289 L102.172054,21.099 C102.894054,19.102 103.391054,17.665 103.660054,16.792 C104.477054,14.792 104.964054,12.741 105.123054,10.642 C104.934054,10.65 104.561054,10.728 103.999054,10.873 C103.528054,10.892 103.246054,10.905 103.154054,10.908 C102.029054,11.079 101.232054,11.237 100.765054,11.377 C101.519054,11.594 102.045054,12.186 102.340054,13.157 C102.345054,13.525 102.210054,13.9 101.933054,14.281 L100.397054,15.267 C100.023054,15.407 99.6620538,16.53 99.3180538,18.634 L99.3200538,18.819 C99.3220538,18.942 99.1850538,19.257 98.9110538,19.758 C98.7300538,20.383 98.5940538,20.757 98.5040538,20.883 M94.0620538,15.715 C94.1540538,15.711 94.2490538,15.707 94.3430538,15.703 L97.8510538,14.635 C98.1350538,14.747 98.5550538,14.546 99.1110538,14.029 C99.2880538,13.283 99.3720538,12.542 99.3610538,11.805 C99.3600538,11.683 99.3100538,11.622 99.2180538,11.625 C99.1230538,11.63 98.9830538,11.635 98.7950538,11.643 C98.6080538,11.775 98.4680538,11.842 98.3760538,11.845 L97.6710538,11.875 C97.2020538,12.018 96.9210538,12.09 96.8290538,12.094 C95.2310538,12.16 94.1060538,12.331 93.4540538,12.603 L93.4590538,12.972 C93.4850538,14.816 93.6850538,15.73 94.0620538,15.715 M92.6140538,22.973 C92.7070538,22.969 92.7560538,23.03 92.7580538,23.151 C92.9450538,23.143 93.4610538,23.001 94.3020538,22.717 C95.1450538,22.561 95.6130538,22.479 95.7080538,22.474 C96.8310538,22.183 97.6610538,21.102 98.1980538,19.234 C98.2870538,18.985 98.3330538,18.799 98.3320538,18.675 C98.4170538,18.181 98.5950538,17.372 98.8610538,16.254 L98.8560538,15.885 C96.0490538,16.74 94.4590538,17.299 94.0880538,17.559 C94.0890538,17.683 94.0920538,17.867 94.0950538,18.113 C94.1110538,19.219 94.2630538,20.015 94.5520538,20.493 L94.4160538,20.867 C94.3250538,21.12 94.2330538,21.244 94.1400538,21.248 C93.7640538,21.263 93.4730538,20.662 93.2690538,19.439 C93.1710538,19.198 93.1220538,19.015 93.1200538,18.891 C93.0260538,18.895 92.9770538,18.713 92.9710538,18.344 C92.9640538,17.854 92.8200538,17.612 92.5380538,17.623 L92.3970538,17.63 C92.1140538,17.52 91.9740538,17.587 91.9780538,17.832 C92.1660538,17.948 92.2640538,18.189 92.2700538,18.558 L92.1310538,18.748 C92.0350538,18.63 91.9380538,18.45 91.8420538,18.207 C91.5530538,17.728 91.3140538,17.49 91.1270538,17.497 C91.1340538,17.99 91.2320538,18.355 91.4240538,18.593 C91.5210538,18.837 91.7140538,19.135 92.0010538,19.491 C91.9960538,19.122 92.0860538,18.934 92.2750538,18.927 C92.5600538,19.163 92.8060538,20.012 93.0160538,21.48 C93.0210538,21.848 93.0250538,22.096 93.0270538,22.217 C92.7500538,22.597 92.6120538,22.851 92.6140538,22.973 M90.3760538,14.207 C90.3930538,15.438 91.1060538,16.023 92.5150538,15.964 L92.5090538,15.595 C92.5770538,13.87 92.3780538,13.016 91.9090538,13.036 C90.9710538,13.198 90.4590538,13.59 90.3760538,14.207 M90.1940538,31.193 C90.1640538,29.103 90.4780538,28.044 91.1360538,28.016 C91.6990538,27.993 91.9840538,28.229 91.9910538,28.719 C91.9930538,28.843 91.9480538,29.09 91.8610538,29.463 C91.7720538,29.835 91.7300538,30.146 91.7330538,30.39 C91.7630538,32.482 92.2930538,33.504 93.3270538,33.461 C93.3380538,34.199 93.0610538,34.58 92.4980538,34.604 L92.3570538,34.609 C90.9270538,33.192 90.2060538,32.054 90.1940538,31.193 M82.7650538,24.12 C82.8530538,23.747 82.9440538,23.558 83.0390538,23.555 C83.1310538,23.551 83.2730538,23.545 83.4620538,23.537 C83.7430538,23.525 84.2130538,23.57 84.8730538,23.663 C85.6250538,23.756 86.1900538,23.792 86.5660538,23.778 C87.0340538,23.757 87.7390538,23.728 88.6780538,23.689 C89.6140538,23.53 90.3660538,23.435 90.9290538,23.411 C91.1160538,23.404 91.3970538,23.332 91.7720538,23.192 L91.7610538,22.454 L90.1520538,18.277 C90.0550538,18.159 89.9090538,17.796 89.7140538,17.187 C89.5120538,16.337 89.3170538,15.791 89.1270538,15.552 C89.0280538,15.31 88.7850538,14.766 88.3990538,13.92 C87.7170538,12.351 87.3770538,11.443 87.3730538,11.195 C87.4550538,10.453 87.6380538,10.016 87.9190538,9.881 C88.1060538,9.873 88.3490538,10.416 88.6460538,11.511 C88.9400538,12.362 89.1330538,12.783 89.2280538,12.779 C89.4150538,12.771 89.6490538,12.64 89.9270538,12.381 C90.0180538,12.256 90.1110538,12.189 90.2060538,12.185 C91.3290538,11.893 91.9350538,11.559 92.0240538,11.186 C92.0200538,10.941 91.9660538,10.514 91.8650538,9.901 C91.7600538,9.167 91.7060538,8.615 91.7000538,8.248 C91.6930538,7.758 91.6860538,7.264 91.6790538,6.771 C91.7670538,6.399 91.9530538,6.207 92.2350538,6.195 C92.4220538,6.186 92.6610538,6.425 92.9500538,6.904 C93.4270538,7.501 93.8080538,7.791 94.0890538,7.779 L94.0920538,7.963 C93.9030538,7.971 93.6700538,7.981 93.3880538,7.992 L93.1090538,8.189 L92.8220538,7.832 C92.8270538,8.2 92.8320538,8.509 92.8350538,8.753 C92.8600538,10.477 93.0590538,11.327 93.4350538,11.312 C93.7170538,11.301 94.1380538,11.222 94.7000538,11.075 C95.2620538,10.931 95.6350538,10.852 95.8240538,10.844 C96.0110538,10.836 96.5740538,10.752 97.5120538,10.589 C98.4480538,10.429 99.0090538,10.282 99.1970538,10.15 C99.6680538,10.255 99.8830538,8.829 99.8410538,5.878 L99.8380538,5.695 C99.7980538,2.868 99.4020538,1.468 98.6510538,1.499 L98.5100538,1.505 C98.3230538,1.637 98.1830538,1.703 98.0900538,1.708 C97.9960538,1.711 97.9490538,1.653 97.9470538,1.528 C98.0290538,0.786 98.4440538,0.28 99.1930538,0 C99.9450538,0.093 100.481054,1.302 100.795054,3.625 C100.804054,4.241 100.818054,5.224 100.837054,6.576 C100.857054,7.93 100.823054,8.974 100.741054,9.716 C101.397054,9.689 102.289054,9.532 103.412054,9.237 C104.630054,9.065 105.522054,8.965 106.086054,8.941 C106.460054,8.926 106.652054,9.165 106.660054,9.656 C106.223054,12.136 105.286054,15.618 103.848054,20.107 C103.759054,20.479 103.669054,20.791 103.580054,21.04 L103.582054,21.225 C104.896054,21.17 105.834054,21.01 106.394054,20.739 C106.581054,20.731 106.861054,20.599 107.234054,20.334 C107.699054,20.071 108.120054,19.929 108.496054,19.913 C108.870054,19.898 109.063054,20.138 109.070245,20.628 C109.077054,21.121 108.892054,21.437 108.520054,21.573 C108.429054,21.825 108.009054,22.027 107.260054,22.178 C106.884054,22.194 106.507054,22.21 106.133054,22.226 L105.852054,22.237 C105.759054,22.365 105.665054,22.43 105.573054,22.434 L105.434054,22.624 C105.339054,22.628 105.198054,22.573 105.009054,22.457 L104.868054,22.463 C104.305054,22.487 103.649054,22.638 102.902054,22.914 L102.766054,23.289 C102.120054,24.177 101.517054,24.633 100.953054,24.656 C100.577054,24.672 100.246054,24.44 99.9570538,23.96 C99.7610538,23.477 99.5240538,23.239 99.2420538,23.25 C99.0530538,23.258 98.7260538,23.335 98.2590538,23.476 C97.8840538,23.615 97.5570538,23.69 97.2760538,23.701 C95.0240538,23.919 92.7740538,24.257 90.5250538,24.719 C89.1200538,25.026 87.6650538,25.208 86.1640538,25.27 C86.0690538,25.275 85.9280538,25.28 85.7410538,25.288 C84.2400538,25.474 83.2960538,25.205 82.9110538,24.482 C82.8170538,24.487 82.7690538,24.367 82.7650538,24.12" id="Fill-13" fill="#FFFFFF"></path>
                        <path d="M102.235054,35.49 C102.327054,35.487 102.374054,35.361 102.371054,35.115 C103.109054,34.226 103.521054,33.47 103.607054,32.85 C103.596054,32.112 103.162054,31.332 102.305054,30.505 L102.297054,29.951 C102.484054,29.944 102.674054,30.12 102.868054,30.481 C103.061054,30.842 103.204054,31.021 103.298054,31.017 C103.766054,30.876 104.001054,30.866 104.003054,30.988 C104.570054,31.213 104.907054,31.812 105.015054,32.791 C105.017054,32.916 105.019054,33.039 105.020054,33.16 L104.746054,33.725 C104.564054,34.226 104.427054,34.476 104.335054,34.48 C103.787054,35.61 103.277054,36.185 102.809054,36.205 C102.527054,36.216 102.334054,35.976 102.235054,35.49 Z M100.778054,12.299 C100.594054,12.675 100.506054,13.048 100.512054,13.417 C100.886054,13.401 101.072054,13.209 101.068054,12.84 C101.064054,12.595 100.966054,12.415 100.778054,12.299 Z M98.5040538,20.883 C98.4110538,21.011 98.3200538,21.322 98.2350538,21.816 C98.3280538,21.812 98.3770538,21.874 98.3790538,21.994 C98.9410538,21.85 99.1250538,21.657 98.9340538,21.418 C99.2160538,21.406 99.3590538,21.524 99.3620538,21.769 C99.5490538,21.761 99.7360538,21.754 99.9250538,21.746 C100.112054,21.738 100.299054,21.67 100.486054,21.537 C100.673054,21.53 100.814054,21.524 100.909054,21.52 C101.096054,21.512 101.471054,21.437 102.033054,21.289 L102.172054,21.099 C102.894054,19.102 103.391054,17.665 103.660054,16.792 C104.477054,14.792 104.964054,12.741 105.123054,10.642 C104.934054,10.65 104.561054,10.728 103.999054,10.873 C103.528054,10.892 103.246054,10.905 103.154054,10.908 C102.029054,11.079 101.232054,11.237 100.765054,11.377 C101.519054,11.594 102.045054,12.186 102.340054,13.157 C102.345054,13.525 102.210054,13.9 101.933054,14.281 L100.397054,15.267 C100.023054,15.407 99.6620538,16.53 99.3180538,18.634 L99.3200538,18.819 C99.3220538,18.942 99.1850538,19.257 98.9110538,19.758 C98.7300538,20.383 98.5940538,20.757 98.5040538,20.883 Z M94.0620538,15.715 C94.1540538,15.711 94.2490538,15.707 94.3430538,15.703 L97.8510538,14.635 C98.1350538,14.747 98.5550538,14.546 99.1110538,14.029 C99.2880538,13.283 99.3720538,12.542 99.3610538,11.805 C99.3600538,11.683 99.3100538,11.622 99.2180538,11.625 C99.1230538,11.63 98.9830538,11.635 98.7950538,11.643 C98.6080538,11.775 98.4680538,11.842 98.3760538,11.845 L97.6710538,11.875 C97.2020538,12.018 96.9210538,12.09 96.8290538,12.094 C95.2310538,12.16 94.1060538,12.331 93.4540538,12.603 L93.4590538,12.972 C93.4850538,14.816 93.6850538,15.73 94.0620538,15.715 Z M92.6140538,22.973 C92.7070538,22.969 92.7560538,23.03 92.7580538,23.151 C92.9450538,23.143 93.4610538,23.001 94.3020538,22.717 C95.1450538,22.561 95.6130538,22.479 95.7080538,22.474 C96.8310538,22.183 97.6610538,21.102 98.1980538,19.234 C98.2870538,18.985 98.3330538,18.799 98.3320538,18.675 C98.4170538,18.181 98.5950538,17.372 98.8610538,16.254 L98.8560538,15.885 C96.0490538,16.74 94.4590538,17.299 94.0880538,17.559 C94.0890538,17.683 94.0920538,17.867 94.0950538,18.113 C94.1110538,19.219 94.2630538,20.015 94.5520538,20.493 L94.4160538,20.867 C94.3250538,21.12 94.2330538,21.244 94.1400538,21.248 C93.7640538,21.263 93.4730538,20.662 93.2690538,19.439 C93.1710538,19.198 93.1220538,19.015 93.1200538,18.891 C93.0260538,18.895 92.9770538,18.713 92.9710538,18.344 C92.9640538,17.854 92.8200538,17.612 92.5380538,17.623 L92.3970538,17.63 C92.1140538,17.52 91.9740538,17.587 91.9780538,17.832 C92.1660538,17.948 92.2640538,18.189 92.2700538,18.558 L92.1310538,18.748 C92.0350538,18.63 91.9380538,18.45 91.8420538,18.207 C91.5530538,17.728 91.3140538,17.49 91.1270538,17.497 C91.1340538,17.99 91.2320538,18.355 91.4240538,18.593 C91.5210538,18.837 91.7140538,19.135 92.0010538,19.491 C91.9960538,19.122 92.0860538,18.934 92.2750538,18.927 C92.5600538,19.163 92.8060538,20.012 93.0160538,21.48 C93.0210538,21.848 93.0250538,22.096 93.0270538,22.217 C92.7500538,22.597 92.6120538,22.851 92.6140538,22.973 Z M90.3760538,14.207 C90.3930538,15.438 91.1060538,16.023 92.5150538,15.964 L92.5090538,15.595 C92.5770538,13.87 92.3780538,13.016 91.9090538,13.036 C90.9710538,13.198 90.4590538,13.59 90.3760538,14.207 Z M90.1940538,31.193 C90.1640538,29.103 90.4780538,28.044 91.1360538,28.016 C91.6990538,27.993 91.9840538,28.229 91.9910538,28.719 C91.9930538,28.843 91.9480538,29.09 91.8610538,29.463 C91.7720538,29.835 91.7300538,30.146 91.7330538,30.39 C91.7630538,32.482 92.2930538,33.504 93.3270538,33.461 C93.3380538,34.199 93.0610538,34.58 92.4980538,34.604 L92.3570538,34.609 C90.9270538,33.192 90.2060538,32.054 90.1940538,31.193 Z M82.7650538,24.12 C82.8530538,23.747 82.9440538,23.558 83.0390538,23.555 C83.1310538,23.551 83.2730538,23.545 83.4620538,23.537 C83.7430538,23.525 84.2130538,23.57 84.8730538,23.663 C85.6250538,23.756 86.1900538,23.792 86.5660538,23.778 C87.0340538,23.757 87.7390538,23.728 88.6780538,23.689 C89.6140538,23.53 90.3660538,23.435 90.9290538,23.411 C91.1160538,23.404 91.3970538,23.332 91.7720538,23.192 L91.7610538,22.454 L90.1520538,18.277 C90.0550538,18.159 89.9090538,17.796 89.7140538,17.187 C89.5120538,16.337 89.3170538,15.791 89.1270538,15.552 C89.0280538,15.31 88.7850538,14.766 88.3990538,13.92 C87.7170538,12.351 87.3770538,11.443 87.3730538,11.195 C87.4550538,10.453 87.6380538,10.016 87.9190538,9.881 C88.1060538,9.873 88.3490538,10.416 88.6460538,11.511 C88.9400538,12.362 89.1330538,12.783 89.2280538,12.779 C89.4150538,12.771 89.6490538,12.64 89.9270538,12.381 C90.0180538,12.256 90.1110538,12.189 90.2060538,12.185 C91.3290538,11.893 91.9350538,11.559 92.0240538,11.186 C92.0200538,10.941 91.9660538,10.514 91.8650538,9.901 C91.7600538,9.167 91.7060538,8.615 91.7000538,8.248 C91.6930538,7.758 91.6860538,7.264 91.6790538,6.771 C91.7670538,6.399 91.9530538,6.207 92.2350538,6.195 C92.4220538,6.186 92.6610538,6.425 92.9500538,6.904 C93.4270538,7.501 93.8080538,7.791 94.0890538,7.779 L94.0920538,7.963 C93.9030538,7.971 93.6700538,7.981 93.3880538,7.992 L93.1090538,8.189 L92.8220538,7.832 C92.8270538,8.2 92.8320538,8.509 92.8350538,8.753 C92.8600538,10.477 93.0590538,11.327 93.4350538,11.312 C93.7170538,11.301 94.1380538,11.222 94.7000538,11.075 C95.2620538,10.931 95.6350538,10.852 95.8240538,10.844 C96.0110538,10.836 96.5740538,10.752 97.5120538,10.589 C98.4480538,10.429 99.0090538,10.282 99.1970538,10.15 C99.6680538,10.255 99.8830538,8.829 99.8410538,5.878 L99.8380538,5.695 C99.7980538,2.868 99.4020538,1.468 98.6510538,1.499 L98.5100538,1.505 C98.3230538,1.637 98.1830538,1.703 98.0900538,1.708 C97.9960538,1.711 97.9490538,1.653 97.9470538,1.528 C98.0290538,0.786 98.4440538,0.28 99.1930538,0 C99.9450538,0.093 100.481054,1.302 100.795054,3.625 C100.804054,4.241 100.818054,5.224 100.837054,6.576 C100.857054,7.93 100.823054,8.974 100.741054,9.716 C101.397054,9.689 102.289054,9.532 103.412054,9.237 C104.630054,9.065 105.522054,8.965 106.086054,8.941 C106.460054,8.926 106.652054,9.165 106.660054,9.656 C106.223054,12.136 105.286054,15.618 103.848054,20.107 C103.759054,20.479 103.669054,20.791 103.580054,21.04 L103.582054,21.225 C104.896054,21.17 105.834054,21.01 106.394054,20.739 C106.581054,20.731 106.861054,20.599 107.234054,20.334 C107.699054,20.071 108.120054,19.929 108.496054,19.913 C108.870054,19.898 109.063054,20.138 109.070245,20.628 C109.077054,21.121 108.892054,21.437 108.520054,21.573 C108.429054,21.825 108.009054,22.027 107.260054,22.178 C106.884054,22.194 106.507054,22.21 106.133054,22.226 L105.852054,22.237 C105.759054,22.365 105.665054,22.43 105.573054,22.434 L105.434054,22.624 C105.339054,22.628 105.198054,22.573 105.009054,22.457 L104.868054,22.463 C104.305054,22.487 103.649054,22.638 102.902054,22.914 L102.766054,23.289 C102.120054,24.177 101.517054,24.633 100.953054,24.656 C100.577054,24.672 100.246054,24.44 99.9570538,23.96 C99.7610538,23.477 99.5240538,23.239 99.2420538,23.25 C99.0530538,23.258 98.7260538,23.335 98.2590538,23.476 C97.8840538,23.615 97.5570538,23.69 97.2760538,23.701 C95.0240538,23.919 92.7740538,24.257 90.5250538,24.719 C89.1200538,25.026 87.6650538,25.208 86.1640538,25.27 C86.0690538,25.275 85.9280538,25.28 85.7410538,25.288 C84.2400538,25.474 83.2960538,25.205 82.9110538,24.482 C82.8170538,24.487 82.7690538,24.367 82.7650538,24.12 Z" id="Stroke-15" stroke="#FFFFFF" stroke-width="0.865"></path>
                    </g>
                </g>
            </g>
        </g>
    </g>
</svg>