<?xml version="1.0" encoding="UTF-8"?>
<svg width="193px" height="65px" viewBox="0 0 193 65" version="1.1" xmlns="http://www.w3.org/2000/svg" xmlns:xlink="http://www.w3.org/1999/xlink">
    <title>2</title>
    <defs>
        <polygon id="path-1" points="0 0 192.257 0 192.257 64.7626 0 64.7626"></polygon>
    </defs>
    <g id="页面-1" stroke="none" stroke-width="1" fill="none" fill-rule="evenodd">
        <g id="画板备份" transform="translate(-292.000000, -592.000000)">
            <g id="1-4备份" transform="translate(0.000000, 253.000000)">
                <g id="Andrea-Lattuada" transform="translate(142.000000, 0.000000)">
                    <g id="2" transform="translate(150.000000, 339.000000)">
                        <mask id="mask-2" fill="white">
                            <use xlink:href="#path-1"></use>
                        </mask>
                        <g id="Clip-2"></g>
                        <path d="M179.257,25.516 C176.629,25.714 174.001,25.899 171.373,26.092 C167.716,26.362 164.058,26.626 160.402,26.91 C157.668,27.122 154.937,27.351 152.205,27.593 C149.316,27.849 146.428,28.136 143.538,28.394 C142.049,28.528 140.556,28.617 139.067,28.748 C138.073,28.835 137.085,28.968 136.094,29.069 C134.394,29.242 132.693,29.398 130.992,29.574 C129.028,29.778 127.067,29.995 125.02,30.216 C125.419,29.778 125.762,29.383 126.127,29.01 C126.41,28.721 126.528,28.427 126.222,27.988 C125.872,28.01 125.453,27.97 125.073,28.073 C124.529,28.221 123.984,28.42 123.493,28.694 C122.687,29.146 121.923,29.673 121.144,30.174 C120.989,30.273 120.745,30.338 120.962,30.632 C118.449,30.909 115.995,31.18 113.514,31.453 C113.447,30.98 113.713,30.731 113.962,30.496 C114.414,30.068 114.888,29.663 115.356,29.251 C115.743,28.91 116.148,28.586 116.519,28.228 C116.812,27.947 117.067,27.627 117.337,27.323 C117.396,27.256 117.436,27.166 117.505,27.117 C118.307,26.538 118.971,25.801 119.752,25.195 C120.933,24.279 122.104,23.346 123.229,22.362 C124.203,21.51 125.254,21.081 126.58,21.151 C129.425,21.299 132.276,21.343 135.122,21.443 C137.133,21.514 139.144,21.606 141.153,21.692 C143.983,21.812 146.813,21.91 149.639,22.067 C151.006,22.143 152.365,22.339 153.731,22.466 C155.645,22.643 157.56,22.805 159.475,22.974 C161.478,23.152 163.492,23.252 165.482,23.529 C168.341,23.926 171.214,24.145 174.086,24.381 C175.648,24.509 177.211,24.613 178.771,24.766 C179.672,24.854 180.568,25.016 181.465,25.148 C181.489,25.152 181.509,25.194 181.593,25.288 C180.777,25.369 180.018,25.459 179.257,25.516 M123.81,29.893 C123.518,30.056 123.191,30.155 122.884,30.292 C122.424,30.497 121.948,30.588 121.324,30.558 C122.265,29.974 123.135,29.516 124.069,29.185 C124.323,29.096 124.569,29.037 124.713,28.766 C124.82,28.566 125.019,28.568 125.216,28.667 C124.997,29.382 124.358,29.591 123.81,29.893 M122.117,31.761 C120.577,32.892 119.168,34.162 117.953,35.643 C115.223,38.974 112.485,42.299 109.748,45.626 C109.626,45.775 109.495,45.918 109.301,46.142 C108.473,45.032 107.37,44.266 106.634,43.151 C107.339,42.441 108.022,41.796 108.809,41.269 C109.015,41.131 109.22,40.989 109.412,40.832 C112.517,38.303 115.59,35.735 118.571,33.059 C119.073,32.609 119.543,32.122 120.037,31.662 C120.135,31.57 120.267,31.474 120.394,31.459 C121.064,31.374 121.736,31.312 122.408,31.248 C122.452,31.244 122.499,31.282 122.616,31.331 C122.427,31.495 122.281,31.641 122.117,31.761 M103.867,40.513 C104.045,40.387 104.189,40.307 104.306,40.198 C104.631,39.895 104.933,39.565 105.268,39.273 C106.274,38.398 107.047,37.301 108.095,36.453 C109.127,35.616 110.016,34.602 110.967,33.665 C111.157,33.478 111.3,33.277 111.404,33.015 C111.578,32.578 111.954,32.316 112.434,32.275 C114.136,32.128 115.84,31.997 117.543,31.855 C117.808,31.833 118.069,31.775 118.333,31.755 C118.568,31.738 118.804,31.751 119.153,31.751 C114.768,35.415 110.483,38.995 106.168,42.599 C105.308,42.037 104.695,41.246 103.867,40.513 M104.417,39.311 C104.119,39.623 103.883,39.87 103.611,40.154 C103.524,39.433 103.71,39.231 104.417,39.311 M105.443,37.891 L105.443,38.499 C105.265,38.461 105.121,38.429 104.892,38.379 C105.077,38.163 105.21,38.008 105.343,37.853 C105.376,37.866 105.409,37.879 105.443,37.891 M102.895,39.451 C101.775,38.35 100.687,37.282 99.556,36.171 C99.985,35.758 100.383,35.379 100.777,34.995 C101.185,34.598 101.595,34.203 101.992,33.794 C102.291,33.487 102.64,33.319 103.069,33.277 C104.963,33.09 106.857,32.894 108.749,32.691 C109.295,32.633 109.836,32.538 110.497,32.444 C107.905,34.832 105.413,37.13 102.895,39.451 M102.156,40.234 C100.65,41.258 99.372,42.557 97.985,43.724 C95.449,45.853 92.931,48.003 90.405,50.145 C90.324,50.214 90.243,50.285 90.156,50.345 C87.828,51.954 85.501,53.563 83.171,55.169 C83.003,55.285 82.817,55.373 82.638,55.475 C82.611,55.45 82.584,55.425 82.558,55.4 C82.595,55.297 82.619,55.187 82.672,55.094 C83.245,54.08 83.996,53.204 84.78,52.351 C84.982,52.132 85.118,51.854 85.289,51.607 C85.41,51.433 85.528,51.253 85.666,51.093 C86.412,50.234 87.162,49.378 87.916,48.525 C88.116,48.299 88.319,48.073 88.543,47.871 C90.076,46.485 91.523,45.017 92.83,43.414 C92.998,43.208 93.18,43.007 93.383,42.836 C94.602,41.811 95.544,40.527 96.638,39.384 C97.411,38.576 98.15,37.734 98.952,36.853 C100.122,37.944 101.252,38.963 102.201,40.1 C102.168,40.203 102.168,40.226 102.156,40.234 M82.984,50.691 C80.837,52.275 78.638,53.789 76.436,55.296 C75.945,55.632 75.36,55.843 74.797,56.057 C74.343,56.229 73.968,55.873 74.082,55.397 C74.134,55.181 74.272,54.98 74.393,54.787 C74.628,54.411 74.902,54.057 75.119,53.671 C76.109,51.921 77.083,50.162 78.063,48.407 C78.399,47.805 78.592,47.167 78.56,46.468 C78.528,45.8 77.976,45.222 77.301,45.194 C76.858,45.176 76.413,45.19 75.946,45.19 C75.929,44.868 76.083,44.663 76.278,44.477 C76.587,44.183 76.917,43.907 77.203,43.591 C77.535,43.225 77.823,42.818 78.146,42.443 C78.284,42.282 78.463,42.154 78.659,42.047 C78.748,41.589 79.054,41.335 79.485,41.168 C79.633,41.111 79.784,40.963 79.852,40.819 C80.03,40.433 80.329,40.162 80.619,39.872 C81.11,39.383 81.58,38.874 82.069,38.384 C82.924,37.528 83.767,36.658 84.66,35.845 C84.901,35.627 85.299,35.528 85.639,35.485 C87.475,35.252 89.316,35.056 91.153,34.844 C92.55,34.682 93.948,34.535 95.34,34.341 C95.893,34.263 96.337,34.335 96.734,34.761 C97.072,35.124 97.472,35.43 97.838,35.768 C97.978,35.898 98.1,36.047 98.257,36.217 C98.067,36.43 97.913,36.622 97.74,36.796 C94.47,40.072 91.194,43.342 87.926,46.62 C86.411,48.14 84.7,49.424 82.984,50.691 M74.506,51.825 C74.118,51.982 73.791,52.216 73.528,52.541 C73.495,52.582 73.456,52.637 73.411,52.647 C72.811,52.795 72.476,53.345 71.928,53.596 C70.686,54.164 69.481,54.812 68.259,55.424 C68.057,55.525 67.847,55.61 67.576,55.636 C67.641,55.527 67.689,55.402 67.774,55.313 C68.131,54.942 68.497,54.579 68.863,54.218 C69.205,53.883 69.549,53.55 69.896,53.221 C70.025,53.099 70.153,52.97 70.302,52.878 C71.208,52.32 72.104,51.74 73.142,51.433 C73.266,51.397 73.356,51.246 73.461,51.142 C73.646,51.174 73.829,51.22 74.015,51.233 C74.241,51.248 74.471,51.236 74.7,51.236 C74.827,51.532 74.768,51.719 74.506,51.825 M90.085,30.265 C90.757,30.533 94.473,32.9 95.194,33.544 C91.985,33.923 88.871,34.29 85.723,34.662 C86.093,34.016 89.502,30.598 90.085,30.265 M88.949,28.674 C87.326,27.579 85.703,26.484 84.084,25.384 C83.9,25.258 83.738,25.095 83.567,24.95 L83.599,24.79 C84.212,24.618 84.819,24.42 85.44,24.277 C88.44,23.585 91.469,23.047 94.511,22.573 C94.86,22.518 95.212,22.482 95.626,22.429 C95.531,22.562 95.473,22.659 95.402,22.745 C94.531,23.782 93.685,24.839 92.782,25.846 C91.904,26.826 90.976,27.761 90.054,28.701 C89.691,29.071 89.672,29.053 89.229,28.83 C89.133,28.782 89.037,28.733 88.949,28.674 M100.15,33.965 C99.664,34.418 99.18,34.872 98.649,35.369 C98.312,35.08 97.982,34.817 97.678,34.528 C97.466,34.327 97.516,34.165 97.797,34.059 C97.895,34.022 98.025,33.967 98.102,34.003 C98.438,34.161 98.708,33.975 99.014,33.902 C99.36,33.819 99.734,33.852 100.095,33.835 C100.113,33.878 100.131,33.922 100.15,33.965 M97.228,22.233 C97.408,22.055 97.629,22.031 97.865,22.023 C99.039,21.985 100.212,21.936 101.386,21.9 C102.827,21.856 104.262,21.755 105.691,21.543 C106.391,21.439 107.108,21.429 107.819,21.412 C108.83,21.389 109.847,21.461 110.849,21.252 C110.97,21.226 111.097,21.228 111.221,21.224 C111.25,21.224 111.28,21.254 111.377,21.305 C111.179,21.535 111.01,21.739 110.832,21.937 C107.999,25.084 105.167,28.232 102.33,31.377 C101.902,31.852 101.462,32.319 101.006,32.769 C100.88,32.894 100.685,32.992 100.508,33.016 C99.487,33.16 98.464,33.288 97.439,33.396 C97.201,33.421 96.939,33.386 96.715,33.303 C96.402,33.186 96.096,33.025 95.819,32.836 C94.601,32.004 93.397,31.152 92.183,30.313 C91.716,29.99 91.237,29.683 90.73,29.347 C90.807,29.244 90.868,29.146 90.944,29.061 C92.453,27.357 93.954,25.644 95.483,23.956 C96.03,23.351 96.646,22.808 97.228,22.233 M112.413,21.77 C112.792,21.457 113.204,21.27 113.706,21.132 C113.529,21.58 113.028,22.197 112.535,22.616 C111.667,23.351 110.793,24.08 109.941,24.832 C109.625,25.111 109.367,25.454 109.071,25.757 C108.957,25.874 108.813,25.961 108.601,25.995 C108.611,25.935 108.602,25.858 108.635,25.818 C109.827,24.406 110.977,22.956 112.413,21.77 M114.339,19.776 C115.036,19.144 115.735,18.513 116.45,17.903 C117.828,16.728 119.265,15.62 120.528,14.315 C120.903,13.929 121.846,13.327 122.381,13.131 C122.405,13.224 122.477,13.339 122.445,13.401 C122.319,13.652 122.202,13.927 122.01,14.12 C120.928,15.198 119.856,16.285 118.619,17.2 C118.054,17.62 117.556,18.13 116.983,18.55 C116.268,19.074 115.596,19.657 114.874,20.169 C114.668,20.315 114.351,20.305 114.085,20.366 C114.054,20.315 114.024,20.266 113.992,20.215 C114.108,20.067 114.203,19.899 114.339,19.776 M108.145,27.138 L107.564,27.138 C107.696,26.766 107.834,26.604 108.327,26.233 C108.372,26.575 108.236,26.852 108.145,27.138 M116.146,21.148 C118.174,21.135 120.203,21.153 122.232,21.164 C122.415,21.165 122.598,21.204 122.903,21.238 C122.692,21.43 122.584,21.539 122.465,21.633 C120.323,23.319 118.274,25.108 116.341,27.032 C115.168,28.199 113.966,29.338 112.77,30.482 C112.103,31.12 111.339,31.581 110.402,31.707 C108.234,31.998 106.067,32.294 103.9,32.585 C103.797,32.599 103.692,32.587 103.553,32.587 C103.656,32.136 103.778,31.739 104.098,31.427 C104.25,31.278 104.381,31.107 104.531,30.957 C104.657,30.832 104.779,30.664 104.935,30.617 C105.644,30.4 105.983,29.814 106.391,29.274 C106.754,28.793 107.188,28.365 107.577,27.902 C107.781,27.662 107.958,27.398 108.147,27.145 C108.747,26.833 109.289,26.455 109.727,25.921 C110.142,25.414 110.595,24.937 111.055,24.47 C111.225,24.297 111.463,24.191 111.665,24.049 C111.939,23.858 112.241,23.694 112.472,23.46 C113.07,22.852 113.63,22.206 114.221,21.59 C114.336,21.469 114.509,21.365 114.671,21.336 C115.158,21.249 115.653,21.152 116.146,21.148 M113.102,45.118 C113.141,45.081 113.178,45.038 113.224,45.015 C114.519,44.344 115.476,43.22 116.688,42.438 C117.075,42.188 117.453,41.918 117.86,41.703 C118.599,41.311 119.355,40.953 120.107,40.584 C120.26,40.51 120.423,40.455 120.658,40.469 C120.2,41.28 119.767,42.107 119.276,42.897 C118.995,43.349 118.628,43.746 118.287,44.158 C117.788,44.763 117.368,45.41 116.985,46.101 C116.47,47.031 115.806,47.879 115.209,48.765 C114.813,49.354 114.424,49.95 114.026,50.537 C113.839,50.812 113.636,51.075 113.409,51.386 C113.284,51.252 113.209,51.185 113.15,51.106 C112.43,50.155 111.706,49.205 110.999,48.245 C110.836,48.024 110.731,47.762 110.604,47.529 C111.489,46.674 112.295,45.896 113.102,45.118 M191.218,25.137 C189.714,24.987 188.207,24.86 186.703,24.715 C184.719,24.523 182.735,24.339 180.753,24.123 C177.992,23.823 175.236,23.493 172.478,23.182 C171.063,23.023 169.647,22.874 168.231,22.727 C165.93,22.488 163.629,22.239 161.325,22.024 C159.411,21.845 157.494,21.697 155.576,21.557 C153.126,21.378 150.676,21.2 148.223,21.061 C146.196,20.947 144.167,20.889 142.139,20.809 C137.032,20.609 131.926,20.412 126.819,20.21 C126.708,20.206 126.598,20.175 126.391,20.14 C127.256,19.371 128.049,18.666 128.837,17.966 C128.413,17.276 128.024,17.201 127.448,17.667 C126.468,18.463 125.487,19.259 124.496,20.042 C124.384,20.131 124.209,20.181 124.063,20.183 C121.517,20.234 118.97,20.275 116.424,20.314 C116.236,20.317 116.049,20.295 115.77,20.28 C115.9,20.156 115.952,20.092 116.018,20.047 C116.516,19.703 117.002,19.338 117.519,19.025 C119.164,18.027 120.552,16.72 121.881,15.355 C122.446,14.774 122.903,14.077 123.357,13.398 C123.639,12.976 123.547,12.846 123.056,12.686 C122.587,12.534 122.124,12.365 121.614,12.188 C121.49,12.334 121.353,12.542 121.171,12.701 C119.363,14.285 117.551,15.864 115.733,17.437 C114.696,18.334 113.644,19.213 112.603,20.105 C112.333,20.336 112.041,20.432 111.68,20.438 C110.47,20.459 109.259,20.501 108.05,20.561 C104.92,20.717 101.79,20.886 98.661,21.048 C98.546,21.054 98.432,21.049 98.317,21.049 C98.491,20.757 98.706,20.556 98.926,20.36 C99.258,20.064 99.616,19.793 99.922,19.473 C101.002,18.339 102.086,17.208 103.126,16.038 C103.92,15.145 104.74,14.283 105.64,13.495 C105.907,13.261 106.17,13.018 106.411,12.757 C108.838,10.126 111.256,7.487 113.688,4.86 C114.646,3.825 115.389,2.643 116.108,1.442 C116.244,1.213 116.347,0.965 116.474,0.73 C116.618,0.461 116.594,0.22 116.38,4.12114787e-13 L116.06,4.12114787e-13 C115.806,0.249 115.549,0.495 115.3,0.748 C114.946,1.108 114.645,1.483 115.047,1.955 C114.845,2.173 114.678,2.358 114.506,2.538 C111.37,5.823 108.216,9.092 105.102,12.397 C102.427,15.235 99.8,18.118 97.137,20.968 C96.958,21.159 96.669,21.307 96.408,21.355 C91.667,22.233 86.923,23.092 82.179,23.959 C81.891,24.012 81.609,24.099 81.263,24.185 C81.382,24.344 81.439,24.455 81.527,24.531 C81.972,24.914 82.396,25.329 82.879,25.657 C84.56,26.795 86.26,27.904 87.957,29.017 C88.194,29.172 88.453,29.294 88.709,29.419 C89.105,29.614 89.157,29.77 88.887,30.106 C88.619,30.439 88.341,30.765 88.044,31.072 C86.968,32.187 85.874,33.285 84.806,34.406 C84.567,34.656 84.305,34.788 83.976,34.829 C83.552,34.883 83.129,34.941 82.706,35.005 C80.261,35.375 77.816,35.746 75.37,36.12 C72.713,36.525 70.057,36.931 67.402,37.342 C64.534,37.785 61.669,38.231 58.803,38.681 C55.621,39.18 52.44,39.683 49.258,40.185 C47.869,40.404 46.481,40.622 45.094,40.85 C42.338,41.305 39.584,41.774 36.826,42.222 C34.209,42.646 31.588,43.045 28.969,43.463 C26.017,43.935 23.065,44.405 20.115,44.896 C18.52,45.162 16.927,45.449 15.339,45.762 C14.486,45.931 13.648,46.184 12.8,46.386 C9.027,47.283 5.253,48.18 1.477,49.064 C0.883,49.203 0.338,49.365 0.119,50.019 C0.106,50.062 0.041,50.088 2.84217094e-14,50.121 L2.84217094e-14,50.549 C0.889,50.554 1.778,50.581 2.65,50.339 C2.816,50.293 3.002,50.322 3.18,50.319 C3.516,50.314 3.856,50.347 4.186,50.302 C5.085,50.182 5.98,50.03 6.876,49.888 C6.981,49.871 7.107,49.868 7.182,49.808 C7.661,49.424 8.243,49.438 8.803,49.365 C9.754,49.242 10.712,49.221 11.655,48.985 C13.778,48.455 15.914,47.983 18.048,47.506 C18.898,47.316 19.768,47.212 20.612,47.005 C21.881,46.694 23.153,46.485 24.463,46.612 C24.569,46.622 24.678,46.592 24.889,46.57 C24.4,46.152 23.97,45.905 23.411,45.982 C22.882,46.054 22.35,46.108 21.824,46.198 C18.107,46.834 14.401,47.534 10.721,48.362 C8.794,48.795 6.869,49.233 4.941,49.659 C4.462,49.764 3.986,49.753 3.443,49.457 C4.232,49.249 4.912,49.059 5.599,48.891 C6.807,48.596 8.015,48.301 9.229,48.031 C9.713,47.923 10.219,47.911 10.704,47.806 C14.112,47.071 17.517,46.316 20.926,45.584 C22.265,45.297 23.606,45.012 24.958,44.798 C27.364,44.416 29.78,44.092 32.193,43.74 C34.482,43.406 36.769,43.062 39.059,42.736 C39.85,42.623 40.653,42.588 41.44,42.451 C43.63,42.067 45.811,41.624 48.001,41.247 C50.93,40.744 53.864,40.28 56.796,39.8 C58.886,39.458 60.972,39.094 63.066,38.782 C65.459,38.426 67.86,38.119 70.257,37.787 C72.706,37.447 75.157,37.111 77.605,36.755 C78.711,36.595 79.825,36.494 80.914,36.192 C81.506,36.028 82.145,36.032 82.764,35.974 C82.885,35.962 83.011,36.015 83.202,36.05 C83.007,36.236 82.878,36.358 82.75,36.481 C81.759,37.428 80.737,38.346 79.781,39.327 C77.036,42.146 74.332,45.004 71.585,47.822 C69.174,50.295 66.738,52.745 64.291,55.183 C63.144,56.327 61.939,57.412 60.771,58.535 C60.355,58.934 59.784,59.17 59.518,59.731 C59.478,59.816 59.351,59.859 59.268,59.926 C59.172,60.003 59.069,60.075 58.987,60.166 C57.819,61.475 56.468,62.574 55.028,63.568 C54.854,63.689 54.659,63.783 54.465,63.871 C54.304,63.945 54.151,63.932 54.043,63.698 C54.11,63.57 54.178,63.407 54.273,63.26 C54.989,62.138 55.599,60.942 56.526,59.962 C56.648,59.833 56.762,59.691 56.847,59.537 C57.28,58.745 57.899,58.103 58.5,57.448 C59.282,56.595 60.065,55.742 60.86,54.901 C61.446,54.281 62.004,53.62 62.659,53.081 C64.998,51.16 67.388,49.301 69.906,47.617 C70.004,47.551 70.094,47.474 70.187,47.403 C69.979,47.403 69.807,47.477 69.649,47.573 C67.022,49.156 64.516,50.912 62.142,52.853 C61.936,53.022 61.745,53.212 61.561,53.404 C61.217,53.762 60.887,54.132 60.543,54.489 C60.309,54.733 60.05,54.953 59.821,55.202 C58.736,56.382 57.657,57.567 56.578,58.751 C56.34,59.013 56.08,59.259 56.031,59.644 C56.021,59.733 55.931,59.835 55.85,59.889 C55.04,60.415 54.724,61.345 54.096,62.019 C54.051,62.068 54.043,62.15 54.016,62.216 C53.908,62.478 53.785,62.736 53.696,63.004 C53.596,63.305 53.517,63.614 53.447,63.924 C53.371,64.263 53.471,64.55 53.755,64.763 L54.611,64.763 C54.721,64.683 54.825,64.594 54.943,64.525 C55.463,64.22 56.043,63.987 56.501,63.606 C57.719,62.596 58.929,61.567 60.064,60.465 C62.183,58.409 64.229,56.28 66.406,54.28 C68.488,52.367 70.442,50.313 72.448,48.319 C73.017,47.755 73.574,47.18 74.139,46.612 C74.553,46.196 75.042,45.907 75.636,45.869 C76.114,45.838 76.597,45.85 77.076,45.867 C77.426,45.879 77.644,46.046 77.674,46.362 C77.758,47.233 77.685,48.053 77.029,48.748 C76.669,49.13 76.364,49.588 76.129,50.058 C75.774,50.766 75.535,50.907 74.805,50.641 C74.382,50.486 73.768,50.619 73.481,50.94 C73.445,50.979 73.464,51.066 73.461,51.134 C73.361,51.144 73.255,51.181 73.163,51.158 C72.685,51.034 72.237,51.128 71.822,51.358 C71.279,51.66 70.722,51.949 70.223,52.314 C68.863,53.307 67.708,54.518 66.638,55.812 C66.539,55.932 66.466,56.072 66.347,56.257 C66.525,56.36 66.659,56.488 66.813,56.515 C67.073,56.559 67.348,56.569 67.611,56.536 C67.792,56.514 67.967,56.406 68.135,56.316 C68.397,56.177 68.646,56.013 68.907,55.873 C69.095,55.773 69.305,55.714 69.486,55.607 C70.039,55.283 70.589,54.953 71.128,54.608 C71.801,54.177 72.454,53.715 73.132,53.29 C73.456,53.087 73.817,52.939 74.144,52.776 C74.563,53.262 74.627,53.454 74.432,53.708 C74.084,54.158 73.743,54.618 73.352,55.028 C72.936,55.464 72.994,55.968 73.034,56.482 C73.039,56.542 73.095,56.619 73.15,56.652 C73.42,56.819 73.683,57.023 73.98,57.117 C74.261,57.206 74.611,57.313 74.823,56.931 C74.852,56.881 74.944,56.864 75.009,56.836 C75.486,56.632 76.022,56.55 76.409,56.152 C76.488,56.071 76.632,56.027 76.751,56.014 C77.113,55.973 77.369,55.771 77.608,55.52 C78.46,54.621 79.434,53.894 80.532,53.309 C81.234,52.935 81.877,52.447 82.52,51.974 C83.494,51.258 84.444,50.508 85.408,49.78 C85.607,49.631 85.823,49.505 86.04,49.383 C86.111,49.342 86.208,49.348 86.394,49.313 C86.247,49.47 86.174,49.545 86.105,49.623 C85.025,50.829 83.935,52.028 82.869,53.248 C82.495,53.676 82.175,54.151 81.846,54.615 C81.713,54.802 81.604,55.011 81.515,55.223 C81.25,55.858 81.82,56.054 82.148,56.363 C82.458,56.657 82.664,56.668 83.008,56.46 C83.128,56.387 83.225,56.277 83.338,56.192 C83.563,56.022 83.774,55.823 84.022,55.696 C84.58,55.411 85.086,55.06 85.571,54.662 C86.835,53.626 88.036,52.499 89.515,51.751 C89.608,51.704 89.686,51.624 89.769,51.558 C91.194,50.406 92.642,49.282 94.036,48.095 C95.975,46.444 97.87,44.744 99.788,43.069 C100.498,42.449 101.215,41.835 101.939,41.231 C102.106,41.092 102.316,41.006 102.505,40.896 C102.529,40.928 102.554,40.959 102.578,40.992 C102.444,41.146 102.315,41.306 102.173,41.454 C100.682,43.009 99.184,44.558 97.695,46.117 C96.897,46.953 96.102,47.796 95.328,48.656 C95.133,48.873 94.986,49.155 94.885,49.432 C94.706,49.922 94.783,50.069 95.325,50.433 C96.031,50.116 96.808,49.839 97.51,49.434 C98.324,48.964 99.076,48.386 99.851,47.848 C100.025,47.726 100.193,47.589 100.336,47.433 C100.617,47.129 100.926,46.879 101.31,46.704 C101.662,46.543 101.978,46.314 102.099,45.876 C101.527,45.814 101.096,46.059 100.728,46.405 C100.164,46.935 99.528,47.353 98.861,47.73 C98.736,47.799 98.627,47.893 98.505,47.967 C97.731,48.436 96.957,48.906 96.177,49.366 C96.104,49.409 95.992,49.386 95.863,49.396 C95.944,48.968 96.148,48.666 96.403,48.391 C98.013,46.653 99.607,44.9 101.239,43.184 C101.886,42.504 102.617,41.906 103.3,41.279 C103.879,41.669 108.447,46.499 108.782,47.08 C108.566,47.392 108.358,47.745 108.098,48.056 C106.742,49.683 105.421,51.342 103.927,52.851 C103.767,53.013 103.633,53.208 103.518,53.405 C103.472,53.484 103.51,53.611 103.51,53.761 C104.379,53.516 105.12,53.208 105.642,52.516 C106.134,51.86 106.707,51.284 107.313,50.729 C108.072,50.032 108.782,49.278 109.516,48.552 C109.624,48.445 109.748,48.354 109.886,48.239 C110.033,48.438 110.149,48.595 110.266,48.75 C111.008,49.729 111.738,50.718 112.502,51.679 C112.73,51.965 113.045,52.184 113.335,52.416 C113.486,52.537 113.671,52.555 113.814,52.387 C114.444,51.643 115.153,50.958 115.485,49.996 C115.577,49.725 115.802,49.499 115.963,49.25 C116.036,49.137 116.111,49.023 116.163,48.901 C116.211,48.788 116.208,48.652 116.266,48.547 C116.72,47.721 117.13,46.864 117.658,46.087 C118.227,45.251 118.91,44.494 119.539,43.698 C119.737,43.447 119.934,43.193 120.11,42.926 C120.679,42.067 121.234,41.199 121.803,40.34 C121.942,40.132 121.951,39.956 121.787,39.762 C121.541,39.469 121.348,39.385 120.94,39.575 C120.183,39.928 119.417,40.28 118.711,40.721 C116.831,41.895 114.849,42.919 113.206,44.447 C112.829,44.797 112.405,45.096 112.014,45.432 C111.486,45.883 110.971,46.349 110.446,46.804 C110.348,46.889 110.229,46.951 110.119,47.023 C110.087,47 110.056,46.977 110.025,46.953 C110.115,46.775 110.179,46.576 110.301,46.423 C110.557,46.104 110.86,45.824 111.113,45.503 C111.91,44.5 112.765,43.534 113.464,42.466 C114.377,41.069 115.457,39.827 116.588,38.617 C116.915,38.266 117.232,37.906 117.535,37.536 C117.84,37.164 118.085,36.74 118.419,36.4 C119.429,35.37 120.474,34.375 121.496,33.358 C122.321,32.537 123.249,31.848 124.224,31.221 C124.428,31.09 124.668,30.977 124.904,30.941 C125.466,30.855 126.038,30.753 126.601,30.779 C127.803,30.836 128.98,30.643 130.163,30.513 C131.967,30.314 133.769,30.094 135.574,29.907 C136.281,29.833 136.995,29.835 137.705,29.784 C138.398,29.733 139.087,29.651 139.778,29.594 C141.162,29.481 142.549,29.392 143.931,29.257 C144.439,29.207 144.947,29.087 145.436,28.934 C145.798,28.821 146.153,28.763 146.529,28.746 C148.361,28.663 150.193,28.578 152.023,28.458 C153.514,28.361 155.004,28.226 156.492,28.085 C157.803,27.961 159.111,27.813 160.418,27.66 C161,27.592 161.578,27.418 162.158,27.412 C163.583,27.396 164.997,27.306 166.418,27.186 C169.221,26.952 172.034,26.853 174.844,26.703 C176.319,26.625 177.799,26.592 179.271,26.475 C181.095,26.331 182.91,26.044 184.736,25.963 C186.528,25.884 188.327,25.982 190.124,26.01 C190.835,26.021 191.546,26.054 192.257,26.076 L192.257,25.328 C191.911,25.263 191.568,25.171 191.218,25.137" id="Fill-1" fill="#FFFFFF" mask="url(#mask-2)"></path>
                    </g>
                </g>
            </g>
        </g>
    </g>
</svg>