<?xml version="1.0" encoding="UTF-8"?>
<svg width="96px" height="36px" viewBox="0 0 96 36" version="1.1" xmlns="http://www.w3.org/2000/svg" xmlns:xlink="http://www.w3.org/1999/xlink">
    <title>5</title>
    <defs>
        <polygon id="path-1" points="-8.8817842e-16 0 27.5537616 0 27.5537616 34.730582 -8.8817842e-16 34.730582"></polygon>
        <polygon id="path-3" points="-1.42108547e-14 0 28.8258579 0 28.8258579 30.99324 -1.42108547e-14 30.99324"></polygon>
        <polygon id="path-5" points="0 0 6.9329815 0 6.9329815 4.61343608 0 4.61343608"></polygon>
    </defs>
    <g id="页面-1" stroke="none" stroke-width="1" fill="none" fill-rule="evenodd">
        <g id="画板备份-5" transform="translate(-720.000000, -612.000000)">
            <g id="Zhimin-Pan" transform="translate(568.000000, 253.000000)">
                <g id="5" transform="translate(152.000000, 359.000000)">
                    <g id="编组" transform="translate(0.127393, 0.716321)">
                        <mask id="mask-2" fill="white">
                            <use xlink:href="#path-1"></use>
                        </mask>
                        <g id="Clip-2"></g>
                        <path d="M16.8882072,6.26048204 C16.9702072,6.25448204 17.0532072,6.24848204 17.1352072,6.24148204 C17.1572072,6.01448204 17.2292072,5.77848204 17.1902072,5.56148204 C17.0902072,5.00248204 16.9422072,4.45048204 16.8022072,3.84948204 C16.5572072,3.87048204 16.2022072,3.90048204 15.7512072,3.93848204 C16.1442072,4.74048204 16.5162072,5.50048204 16.8882072,6.26048204 M19.4062072,23.185482 C18.6342072,23.835482 17.8732072,24.477482 17.1132072,25.119482 C17.1412072,25.159482 17.1692072,25.199482 17.1982072,25.239482 C17.7992072,25.025482 18.4062072,24.822482 19.0012072,24.593482 C19.6822072,24.331482 19.8102072,23.911482 19.4062072,23.185482 M19.9622072,26.290482 C18.9012072,26.824482 17.9252072,27.312482 16.9562072,27.812482 C16.8852072,27.848482 16.8102072,27.980482 16.8212072,28.056482 C16.8882072,28.529482 16.9462072,29.008482 17.0762072,29.465482 C17.1642072,29.770482 17.4302072,29.990482 17.7762072,29.877482 C18.4152072,29.667482 19.0432072,29.418482 19.6692072,29.168482 C19.9512072,29.055482 20.0462072,28.834482 20.0152072,28.515482 C19.9682072,28.053482 19.9742072,27.585482 19.9642072,27.119482 C19.9572072,26.843482 19.9622072,26.567482 19.9622072,26.290482 M14.9942072,24.670482 C15.0662072,24.710482 15.1362072,24.749482 15.2062072,24.789482 C15.3602072,24.587482 15.4892072,24.358482 15.6702072,24.187482 C16.3872072,23.511482 16.9502072,22.667482 17.8712072,22.211482 C17.9812072,22.156482 18.0462072,21.910482 18.0442072,21.753482 C18.0302072,20.295482 17.9992072,18.838482 17.9632072,17.380482 C17.9592072,17.195482 17.8952072,17.011482 17.8392072,16.728482 C16.0342072,18.088482 15.0412072,20.009482 13.6602072,21.637482 C13.7652072,21.683482 13.8032072,21.703482 13.8432072,21.717482 C14.9082072,22.083482 15.1552072,22.509482 15.0022072,23.611482 C14.9542072,23.958482 14.9942072,24.317482 14.9942072,24.670482 M21.8392072,21.765482 C21.8262072,21.823482 21.8142072,21.881482 21.8022072,21.939482 C22.1402072,22.074482 22.4682072,22.253482 22.8192072,22.335482 C23.6152072,22.519482 24.0032072,22.880482 24.0432072,23.557482 C24.0892072,24.333482 23.7462072,24.798482 22.9502072,25.041482 C21.9682072,25.342482 21.6592072,25.992482 21.9342072,26.976482 C22.0302072,27.315482 21.9372072,27.710482 21.9092072,28.078482 C21.8962072,28.259482 21.8352072,28.436482 21.7962072,28.614482 C22.3802072,28.754482 22.5462072,28.430482 22.6172072,28.001482 C22.7752072,28.100482 22.9052072,28.247482 23.0432072,28.255482 C23.5282072,28.285482 24.0142072,28.267482 24.5852072,28.267482 C24.8972072,27.159482 25.2432072,25.935482 25.5832072,24.708482 C25.6062072,24.626482 25.5762072,24.531482 25.5772072,24.442482 C25.5862072,23.587482 25.5972072,22.733482 25.6052072,21.878482 C25.6092072,21.524482 25.6062072,21.171482 25.6062072,20.788482 C24.2002072,20.768482 23.0172072,21.255482 21.8392072,21.765482 M20.0752072,20.467482 C20.5452072,20.310482 21.0062072,20.145482 21.4732072,20.003482 C22.7242072,19.621482 23.9792072,19.249482 25.2322072,18.873482 C25.2452072,18.869482 25.2592072,18.860482 25.2732072,18.855482 C26.7102072,18.427482 27.4852072,18.982482 27.5422072,20.485482 C27.6102072,22.228482 27.3732072,23.937482 26.9592072,25.626482 C26.5942072,27.114482 26.2602072,28.610482 25.8612072,30.089482 C25.6192072,30.981482 25.2742072,31.845482 24.9852072,32.724482 C24.8592072,33.109482 24.7452072,33.498482 24.6432072,33.890482 C24.5042072,34.420482 24.1872072,34.737482 23.7772072,34.7305956 C23.3222072,34.722482 22.8882072,34.377482 22.8342072,33.855482 C22.7412072,32.958482 22.7182072,32.055482 22.6692072,31.154482 C22.6602072,30.976482 22.6682072,30.797482 22.6682072,30.532482 C22.2642072,30.617482 21.9052072,30.648482 21.5792072,30.770482 C20.3712072,31.224482 19.1662072,31.691482 17.9762072,32.190482 C17.6222072,32.339482 17.3332072,32.634482 16.9912072,32.816482 C16.5012072,33.076482 16.2792072,33.025482 15.9322072,32.599482 C15.7342072,32.355482 15.5442072,32.094482 15.4072072,31.814482 C14.6552072,30.287482 13.9922072,28.731482 13.6842072,27.039482 C13.4782072,25.905482 13.1932072,24.786482 12.9552072,23.657482 C12.8942072,23.366482 12.8792072,23.066482 12.8492072,22.820482 C12.5292072,22.820482 12.1622072,22.928482 11.9972072,22.792482 C11.7892072,22.622482 11.6652072,22.254482 11.6532072,21.965482 C11.6362072,21.587482 11.8162072,21.203482 11.8182072,20.822482 C11.8202072,19.944482 12.4552072,19.499482 12.9752072,18.951482 C14.7982072,17.029482 16.1042072,14.765482 17.2272072,12.387482 C17.2432072,12.351482 17.2382072,12.304482 17.2512072,12.192482 C14.9342072,13.223482 12.9232072,14.826482 10.3382072,15.302482 C10.8362072,15.840482 10.6582072,16.337482 10.3672072,16.853482 C8.66320723,19.883482 7.02120723,22.947482 5.25620723,25.940482 C4.14320723,27.830482 2.85520723,29.617482 1.64320723,31.449482 C1.57620723,31.549482 1.49420723,31.638482 1.41620723,31.730482 C0.98120723,32.241482 0.81520723,32.293482 0.45620723,32.029482 C-0.0157927704,31.680482 -0.13579277,31.154482 0.16320723,30.696482 C0.96220723,29.474482 1.76520723,28.255482 2.56820723,27.036482 C3.26320723,25.980482 3.98820723,24.943482 4.65120723,23.867482 C5.77120723,22.052482 6.85920723,20.216482 7.94720723,18.380482 C8.41020723,17.596482 8.82220723,16.781482 9.29020723,16.001482 C9.46320723,15.713482 9.73320723,15.483482 9.90320723,15.290482 C9.81920723,14.967482 9.60620723,14.611482 9.68320723,14.337482 C9.78920723,13.966482 10.0422072,13.505482 10.3632072,13.348482 C11.8392072,12.623482 13.0262072,11.498482 14.3582072,10.577482 C15.3602072,9.88348204 16.3332072,9.14848204 17.2962072,8.40148204 C17.5332072,8.21848204 17.6782072,7.91848204 17.8662072,7.67248204 C17.8162072,7.62948204 17.7652072,7.58648204 17.7142072,7.54348204 C17.6742072,7.60948204 17.6432072,7.68148204 17.5942072,7.74048204 C17.2422072,8.16048204 16.8662072,8.27648204 16.4022072,7.98648204 C16.0282072,7.75248204 15.6582072,7.44948204 15.4082072,7.09248204 C14.9252072,6.40648204 14.5272072,5.66148204 14.0982072,4.93848204 C13.9922072,4.75948204 13.9042072,4.57048204 13.8222072,4.41148204 C13.7672072,4.39648204 13.7502072,4.38548204 13.7402072,4.38948204 C13.1402072,4.61848204 12.6182072,4.55248204 12.3692072,4.21648204 C12.1172072,3.87348204 12.1532072,3.21648204 12.5242072,2.78448204 C12.7522072,2.52048204 13.0672072,2.32048204 13.3662072,2.12748204 C14.5332072,1.37248204 15.8742072,1.05348204 17.1882072,0.701482042 C18.3292072,0.394482042 19.5122072,0.241482042 20.6752072,0.0144820421 C21.0162072,-0.0515179579 21.1662072,0.112482042 21.2582072,0.416482042 C21.5092072,1.25348204 20.8522072,2.30048204 20.0182072,2.46348204 C19.5262072,2.55848204 19.0562072,2.77148204 18.6062072,2.92148204 C18.7492072,3.50448204 18.8592072,4.01148204 19.0002072,4.51048204 C19.1402072,5.00148204 19.6652072,5.14448204 20.0792072,4.78548204 C20.8082072,4.15548204 21.4952072,3.47748204 22.2322072,2.85848204 C22.4922072,2.63848204 22.8332072,2.44948204 23.1622072,2.39148204 C23.6422072,2.30648204 23.9192072,2.60748204 23.9462072,3.09648204 C23.9872072,3.88348204 23.5582072,4.44948204 23.0932072,5.02348204 C22.5762072,5.66048204 22.1162072,6.34348204 21.6352072,7.01048204 C21.5772072,7.09148204 21.5492072,7.19348204 21.4442072,7.42748204 C22.4802072,7.08948204 23.4012072,6.78848204 24.3932072,6.46448204 C24.5172072,7.24648204 24.3532072,7.82948204 23.9732072,8.35648204 C23.3622072,9.20448204 22.4742072,9.64748204 21.5102072,9.93948204 C19.9632072,10.407482 19.9172072,10.433482 19.8512072,12.036482 C19.8232072,12.709482 19.8462072,13.385482 19.8462072,14.161482 C20.2902072,14.066482 20.6692072,14.012482 21.0312072,13.901482 C21.6762072,13.702482 22.2972072,13.402482 22.9532072,13.267482 C23.7572072,13.103482 24.5892072,12.975482 25.4052072,12.996482 C26.3972072,13.022482 26.8452072,13.648482 26.7272072,14.592482 C26.6572072,15.156482 26.2892072,15.501482 25.7172072,15.459482 C25.3652072,15.433482 25.0032072,15.345482 24.6752072,15.213482 C24.1292072,14.992482 23.6242072,15.003482 23.0572072,15.176482 C22.5522072,15.330482 21.9932072,15.367482 21.4592072,15.364482 C20.4032072,15.356482 19.8572072,15.751482 19.7862072,16.808482 C19.7362072,17.566482 19.8092072,18.336482 19.8652072,19.097482 C19.8982072,19.560482 20.0032072,20.016482 20.0752072,20.467482" id="Fill-1" fill="#FFFFFF" mask="url(#mask-2)"></path>
                    </g>
                    <g id="编组" transform="translate(66.836142, 0.386982)">
                        <mask id="mask-4" fill="white">
                            <use xlink:href="#path-3"></use>
                        </mask>
                        <g id="Clip-4"></g>
                        <path d="M8.27705791,13.762621 C6.48405791,15.293621 6.38005791,17.517621 5.59405791,19.384621 C6.28105791,19.300621 6.91105791,19.205621 7.54605791,19.148621 C8.61405791,19.052621 9.02105791,18.581621 8.90205791,17.526621 C8.81505791,16.752621 8.73805791,15.976621 8.61905791,15.206621 C8.54705791,14.739621 8.40305791,14.283621 8.27705791,13.762621 M13.3940579,18.638621 C13.3330579,18.616621 13.2700579,18.594621 13.2090579,18.572621 C12.5460579,18.884621 11.8870579,19.206621 11.2170579,19.504621 C10.9760579,19.612621 10.8830579,19.759621 10.8910579,20.021621 C10.9390579,21.493621 10.9730579,22.966621 11.0180579,24.438621 C11.0230579,24.586621 11.0220579,24.775621 11.1070579,24.871621 C11.6460579,25.490621 12.2100579,26.087621 12.7650579,26.691621 C12.8080579,26.695621 12.8520579,26.698621 12.8960579,26.701621 C13.0620579,24.014621 13.2280579,21.326621 13.3940579,18.638621 M10.2540579,14.820621 L10.2490579,14.820621 C10.2740579,15.300621 10.2930579,15.780621 10.3270579,16.260621 C10.3570579,16.678621 10.3920579,17.096621 10.4500579,17.511621 C10.4930579,17.820621 10.6250579,17.985621 10.9660579,17.767621 C11.2690579,17.575621 11.5950579,17.421621 11.9140579,17.254621 C12.6800579,16.853621 13.3070579,16.340621 13.2770579,15.375621 C13.2490579,14.446621 13.1950579,13.518621 13.1270579,12.592621 C13.1120579,12.391621 13.0160579,12.182621 12.9080579,12.008621 C12.8400579,11.899621 12.6710579,11.767621 12.5640579,11.780621 C11.8970579,11.865621 11.2310579,11.968621 10.5730579,12.105621 C10.2600579,12.170621 10.1250579,12.405621 10.1500579,12.749621 C10.2020579,13.438621 10.2210579,14.129621 10.2540579,14.820621 M21.8020579,18.923621 C21.8850579,17.384621 22.0280579,15.846621 22.0320751,14.307621 C22.0340579,13.156621 21.8610579,12.004621 21.7600579,10.853621 C21.7440579,10.676621 21.7320579,10.478621 21.6450579,10.333621 C21.5900579,10.241621 21.3420579,10.150621 21.2780579,10.196621 C20.2500579,10.920621 19.4220579,11.792621 19.4160579,13.152621 C19.4140579,13.724621 19.1350579,14.142621 18.8280579,14.575621 C18.7470579,14.690621 18.6900579,14.914621 18.7470579,15.022621 C19.5120579,16.470621 20.3650579,17.859621 21.8020579,18.923621 M11.2630579,26.820621 C11.0240579,27.137621 10.8100579,27.423621 10.5940579,27.708621 C10.3800579,27.991621 10.1240579,27.990621 9.84105791,27.815621 C9.46405791,27.580621 9.36605791,27.211621 9.37105791,26.803621 C9.38105791,26.022621 9.43105791,25.240621 9.41305791,24.459621 C9.39105791,23.528621 9.30505791,22.597621 9.26705791,21.666621 C9.22305791,20.596621 9.19405791,20.554621 8.14705791,20.487621 C8.02705791,20.479621 7.90805791,20.462621 7.78805791,20.454621 C6.49505791,20.374621 5.45905791,20.961621 4.89805791,22.129621 C4.71705791,22.505621 4.55705791,22.908621 4.48305791,23.315621 C4.27305791,24.465621 4.09805791,25.621621 3.93705791,26.779621 C3.84905791,27.403621 3.78605791,28.033621 3.76905791,28.663621 C3.75405791,29.243621 3.97705791,29.413621 4.55305791,29.346621 C4.80705791,29.316621 5.05705791,29.265621 5.30805791,29.218621 C6.48205791,28.997621 7.62405791,28.553621 8.85305791,28.722621 C9.52105791,28.814621 10.1910579,28.901621 10.8630579,28.960621 C11.0060579,28.972621 11.2810579,28.866621 11.2900579,28.791621 C11.3600579,28.150621 11.6590579,27.501621 11.2630579,26.820621 M26.9150579,26.250621 C27.0280579,25.933621 27.0750579,25.690621 27.1950579,25.490621 C27.3970579,25.153621 27.7300579,25.166621 27.8520579,25.526621 C28.1840579,26.508621 28.5210579,27.491621 28.7720579,28.496621 C28.9130579,29.060621 28.7800579,29.643621 28.3470579,30.092621 C28.0370579,30.414621 27.6540579,30.398621 27.5040579,29.997621 C26.9200579,28.437621 25.5940579,27.429621 24.6820579,26.116621 C24.3160579,25.590621 23.9580579,25.055621 23.6280579,24.506621 C23.3260579,24.002621 23.0510579,23.485621 22.4830579,23.137621 C22.4020579,23.298621 22.3180579,23.434621 22.2600579,23.580621 C21.9400579,24.392621 21.6430579,25.213621 21.3010579,26.015621 C21.1280579,26.422621 20.8960579,26.809621 20.6540579,27.181621 C20.3510579,27.647621 20.0440579,28.118621 19.6760579,28.533621 C19.2840579,28.976621 18.8200579,29.356621 18.3850579,29.761621 C18.3200579,29.822621 18.2110579,29.853621 18.1740579,29.925621 C17.9070579,30.460621 17.4580579,30.357621 17.0090579,30.276621 C15.7500579,30.047621 14.7360579,29.497621 14.3040579,28.217621 C14.1090579,28.575621 13.9750579,29.001621 13.6980579,29.291621 C13.2890579,29.719621 12.9110579,29.354621 12.5890579,29.075621 C12.3440579,29.563621 12.1250579,30.040621 11.8700579,30.497621 C11.6640579,30.869621 11.3500579,31.045621 10.8930579,30.979621 C10.1950579,30.877621 9.49105791,30.798621 8.78705791,30.751621 C8.35705791,30.723621 7.92305791,30.769621 7.49105791,30.790621 C6.13905791,30.858621 4.78905791,30.946621 3.43705791,30.991621 C2.81705791,31.012621 2.04905791,30.180621 2.05405791,29.431621 C2.05905791,28.608621 2.13405791,27.778621 2.27105791,26.966621 C2.53605791,25.400621 2.86605791,23.845621 3.16805791,22.286621 C3.18705791,22.185621 3.19705791,22.082621 3.22405791,21.879621 C2.91205791,21.900621 2.63205791,21.884621 2.37005791,21.944621 C1.88705791,22.054621 1.41505791,22.205621 0.939057911,22.345621 C0.431057911,22.493621 0.178057911,22.347621 0.0560579107,21.826621 C-0.164942089,20.880621 0.274057911,20.300621 1.25705791,20.169621 C1.94105791,20.078621 2.61405791,19.913621 3.29605791,19.805621 C3.76405791,19.731621 4.01005791,19.456621 4.10605791,19.019621 C4.76705791,16.012621 6.11405791,13.234621 7.01905791,10.308621 C7.08105791,10.110621 7.16505791,9.90762103 7.28705791,9.74162103 C7.51405791,9.43162103 7.64705791,9.12362103 7.63705791,8.71662103 C7.63105791,8.47662103 7.82605791,8.23062103 7.93805791,7.99062103 C8.03005791,7.79162103 8.13205791,7.59762103 8.29105791,7.28362103 C7.78305791,7.38262103 7.39805791,7.46162103 7.01205791,7.53362103 C5.93505791,7.73662103 4.86105791,7.95762103 3.77905791,8.12862103 C3.06505791,8.24162103 2.81305791,8.02662103 2.77305791,7.29362103 C2.75605791,6.99062103 2.84505791,6.67062103 2.93705791,6.37462103 C3.01605791,6.11962103 3.14405791,5.87162103 3.29105791,5.64662103 C4.08405791,4.42762103 4.85105791,3.18762103 5.70705791,2.01262103 C6.18405791,1.35662103 6.79805791,0.793621032 7.39005791,0.229621032 C7.55105791,0.0766210318 7.99205791,-0.0553789682 8.06405791,0.0236210318 C8.28905791,0.265621032 8.73105791,0.330621032 8.68005791,0.848621032 C8.59905791,1.67962103 8.11605791,2.19862103 7.54505791,2.71762103 C6.61805791,3.55962103 5.87105791,4.54862103 5.30505791,5.66362103 C5.32605791,5.70262103 5.34605791,5.74262103 5.36705791,5.78262103 C6.48805791,5.53062103 7.61005791,5.28162103 8.72905791,5.02162103 C9.02105791,4.95462103 9.29905791,4.81462103 9.59205791,4.77262103 C10.3620579,4.66062103 10.8250579,5.13062103 10.6810579,5.89462103 C10.6040579,6.30462103 10.4650579,6.71062103 10.2950579,7.09262103 C9.89205791,7.99662103 9.44805791,8.88162103 9.03505791,9.78162103 C8.85605791,10.172621 8.71305791,10.579621 8.51005791,11.087621 C8.71505791,10.978621 8.81705791,10.932621 8.91105791,10.873621 C9.84405791,10.288621 10.8600579,9.93662103 11.9490579,9.79162103 C12.9490579,9.65862103 13.8170579,10.035621 14.2250579,10.961621 C14.5410579,11.676621 14.8080579,12.475621 14.8280579,13.243621 C14.8980579,16.009621 14.9020579,18.780621 14.8350579,21.546621 C14.7950579,23.174621 14.5730579,24.798621 14.4280579,26.471621 C14.8440579,26.335621 14.9700579,26.605621 15.0650579,26.909621 C15.1200579,27.082621 15.1930579,27.254621 15.2110579,27.430621 C15.2670579,28.023621 15.6900579,28.347621 16.1200579,28.643621 C16.2270579,28.717621 16.4890579,28.661621 16.6290579,28.578621 C18.5750579,27.416621 19.8550579,25.720621 20.5480579,23.577621 C20.7270579,23.021621 20.8850579,22.451621 20.9720579,21.875621 C21.0180579,21.574621 20.9670579,21.199621 20.8190579,20.938621 C20.4580579,20.300621 20.0130579,19.708621 19.6050579,19.096621 C19.4310579,18.836621 19.2830579,18.556621 19.0910579,18.310621 C18.5500579,17.612621 18.0010579,16.920621 17.4380579,16.238621 C16.9390579,15.632621 16.4250579,15.037621 16.2520579,14.242621 C16.0950579,13.528621 16.4240579,13.029621 17.0900579,12.985621 C17.2600579,12.973621 17.4390579,13.061621 17.6720579,13.116621 C17.6490579,12.784621 17.6370579,12.405621 17.5950579,12.029621 C17.3400579,9.72762103 17.1010579,7.42462103 16.8070579,5.12762103 C16.6870579,4.19162103 16.4190579,3.27662103 16.2630579,2.34362103 C16.1770579,1.82462103 16.2640579,1.32562103 16.7910579,1.02162103 C17.1970579,0.786621032 17.4700579,0.821621032 17.6420579,1.28862103 C17.9100579,2.01662103 18.1600579,2.76962103 18.2750579,3.53362103 C18.5370579,5.27262103 18.7120579,7.02562103 18.9260579,8.77262103 C18.9520579,8.97562103 19.0050579,9.17462103 19.0580579,9.43962103 C19.9560579,8.81062103 20.7880579,8.19462103 21.6520579,7.62962103 C23.1100579,6.67762103 24.5880579,5.75362103 26.0620579,4.82562103 C26.3720579,4.63162103 27.1410579,4.76062103 27.4210579,5.06962103 C27.7030579,5.38162103 27.5320579,5.72962103 27.3860579,6.03862103 C27.0930579,6.65862103 26.6950579,7.10262103 25.9420579,7.25362103 C24.9640579,7.44862103 24.1110579,7.98162103 23.3480579,8.62362103 C23.2230579,8.72862103 23.1260579,8.96362103 23.1440579,9.12362103 C23.2120579,9.70462103 23.2810579,10.295621 23.4460579,10.853621 C23.7690579,11.945621 23.7710579,13.054621 23.7080579,14.167621 C23.6100579,15.895621 23.4850579,17.622621 23.3390579,19.346621 C23.3030579,19.773621 23.1020579,20.183621 23.0530579,20.610621 C23.0220579,20.885621 23.0690579,21.205621 23.1900579,21.452621 C23.3400579,21.756621 23.6070579,22.000621 23.8140579,22.276621 C24.3280579,22.959621 24.8250579,23.653621 25.3490579,24.327621 C25.8460579,24.964621 26.3680579,25.581621 26.9150579,26.250621" id="Fill-3" fill="#FFFFFF" mask="url(#mask-4)"></path>
                    </g>
                    <path d="M43.2978,23.8581026 C42.8688,25.2541026 42.5078,26.6211026 42.0288,27.9451026 C41.2698,30.0511026 40.4398,32.1321026 39.6198,34.2161026 C39.3698,34.8551026 38.8188,35.1871026 38.3888,35.0301026 C37.9858,34.8851026 37.7848,34.1551026 37.9628,33.5491026 C38.0718,33.1761026 38.1468,32.7931026 38.2488,32.4191026 C38.2828,32.2921026 38.3278,32.1461026 38.4178,32.0621026 C39.2098,31.3231026 39.5608,30.3421026 39.8998,29.3621026 C40.2658,28.2981026 40.6198,27.2301026 40.9328,26.1491026 C41.4288,24.4351026 41.9158,22.7181026 42.3348,20.9841026 C42.4438,20.5351026 42.3648,19.9951026 42.2258,19.5421026 C41.9318,18.5931026 42.1238,18.1801026 43.0848,17.8951026 C43.2318,17.8521026 43.3678,17.6291026 43.4248,17.4601026 C43.5828,16.9961026 43.6948,16.5171026 43.8318,16.0221026 C43.6788,16.0601026 43.4698,16.1061026 43.2648,16.1651026 C42.9168,16.2641026 42.6858,16.1351026 42.5268,15.8231026 C42.0888,14.9631026 42.3898,14.2791026 43.3218,14.0631026 C43.6278,13.9911026 43.9528,13.9971026 44.2568,13.9191026 C44.7608,13.7881026 45.2798,13.6731026 45.7468,13.4531026 C46.5178,13.0891026 46.9218,12.4971026 46.8248,11.5711026 C46.7138,10.4951026 46.7058,9.40710259 46.6478,8.32510259 C46.6258,7.91310259 46.5328,7.87310259 46.1918,8.02410259 C44.6188,8.71510259 43.0088,9.28210259 41.2908,9.49210259 C40.9528,9.53310259 40.6188,9.62710259 40.2888,9.71610259 C40.0148,9.79110259 39.7588,9.84210259 39.5528,9.57810259 C39.3448,9.31110259 39.2838,8.99310259 39.4998,8.74710259 C39.7798,8.42610259 40.0958,8.07710259 40.4718,7.91210259 C41.2518,7.56910259 42.0758,7.31910259 42.8938,7.06910259 C43.5678,6.86310259 44.2638,6.72510259 44.9418,6.52810259 C45.2258,6.44410259 45.4948,6.29910259 45.7588,6.15610259 C46.0548,5.99610259 46.0838,5.79210259 45.9648,5.44710259 C45.5128,4.14310259 45.1108,2.82110259 44.7128,1.50010259 C44.6468,1.27910259 44.6458,1.01410259 44.6938,0.787102585 C44.7698,0.439102585 44.8698,0.0661025852 45.3258,0.0121025852 C45.8588,-0.0508974148 46.1938,0.130102585 46.4068,0.601102585 C46.9078,1.70610259 47.1928,2.87110259 47.3728,4.06610259 C47.4178,4.36110259 47.4848,4.65810259 47.5748,4.94210259 C47.7388,5.46010259 47.8918,5.55910259 48.3618,5.31010259 C48.9838,4.98110259 49.5598,4.56610259 50.1568,4.19310259 C50.6648,3.87710259 51.1558,3.52410259 51.6938,3.26510259 C52.1458,3.04710259 52.4958,3.26210259 52.4888,3.76510259 C52.4838,4.16710259 52.3838,4.62210259 52.1688,4.95110259 C51.8888,5.37910259 51.4998,5.77810259 51.0728,6.06110259 C50.3768,6.52210259 49.6208,6.90010259 48.8698,7.27110259 C48.5338,7.43710259 48.3738,7.61710259 48.3608,8.01510259 C48.3238,9.14210259 48.2308,10.2681026 48.1628,11.3941026 C48.1518,11.5671026 48.1618,11.7421026 48.1618,11.9161026 C48.1978,11.9381026 48.2348,11.9601026 48.2728,11.9821026 C48.5198,11.7561026 48.7688,11.5331026 49.0128,11.3041026 C49.2858,11.0471026 49.5368,10.7631026 49.8298,10.5301026 C50.6168,9.90510259 51.0808,9.99110259 51.6508,10.7771026 C51.4708,11.1741026 51.3178,11.5381026 51.1408,11.8901026 C51.0688,12.0321026 50.9648,12.1701026 50.8428,12.2731026 C50.3938,12.6501026 49.9088,12.9891026 49.4788,13.3851026 C48.7728,14.0361026 47.8808,14.3321026 47.0398,14.7231026 C46.2498,15.0911026 45.4468,15.4291026 44.6098,15.7971026 C45.2018,16.4031026 45.1938,17.0841026 44.9418,17.8041026 C44.8418,18.0871026 44.7928,18.3901026 44.6758,18.6641026 C44.2368,19.6861026 44.3178,20.7191026 44.5868,21.7541026 C45.0268,23.4411026 45.7018,25.0281026 46.6978,26.4641026 C48.1078,28.4981026 50.0698,29.5451026 52.5358,29.4441026 C53.7358,29.3961026 54.8708,28.9101026 55.9268,28.3151026 C56.0168,28.2641026 56.0908,28.0151026 56.0438,27.9211026 C55.7648,27.3621026 55.5228,26.7601026 55.1298,26.2871026 C54.2848,25.2711026 53.3568,24.3251026 52.4628,23.3511026 C52.4748,23.3061026 52.4868,23.2621026 52.4988,23.2171026 C52.7558,23.2611026 53.0388,23.2511026 53.2638,23.3611026 C53.8568,23.6521026 54.4998,23.9091026 54.9878,24.3351026 C56.2458,25.4311026 57.6468,26.3931026 58.5508,27.8491026 C58.6028,27.9321026 58.6428,28.0611026 58.6168,28.1481026 C58.4168,28.8411026 58.2218,29.5371026 57.4528,29.8531026 C56.0318,30.4361026 54.5988,30.9821026 53.0688,31.2021026 C50.8928,31.5161026 48.9568,30.9291026 47.2528,29.5661026 C45.9598,28.5321026 45.0418,27.1961026 44.2758,25.7481026 C43.9478,25.1281026 43.6308,24.5031026 43.2978,23.8581026" id="Fill-5" fill="#FFFFFF"></path>
                    <g id="编组" transform="translate(0.000000, 7.503603)">
                        <mask id="mask-6" fill="white">
                            <use xlink:href="#path-5"></use>
                        </mask>
                        <g id="Clip-8"></g>
                        <path d="M1.1269,0 C1.2059,0.023 1.4079,0.043 1.5709,0.134 C2.9629,0.909 4.3679,1.664 5.7219,2.5 C6.1749,2.78 6.5389,3.247 6.8479,3.695 C6.9779,3.884 6.9529,4.318 6.8139,4.503 C6.7119,4.64 6.2739,4.643 6.0549,4.548 C5.7259,4.406 5.4649,4.113 5.1579,3.91 C4.9379,3.763 4.6969,3.636 4.4509,3.537 C3.4479,3.133 2.4289,2.771 1.4409,2.334 C1.0389,2.156 0.6829,1.851 0.3459,1.557 C0.0309,1.282 -0.0921,0.896 0.0729,0.49 C0.2399,0.08 0.6199,0.015 1.1269,0" id="Fill-7" fill="#FFFFFF" mask="url(#mask-6)"></path>
                    </g>
                    <path d="M53.7314,20.0315026 C53.8244,20.6515026 53.6104,21.0765026 53.1444,21.3025026 C52.1314,21.7945026 51.0934,22.0735026 50.0154,21.4335026 C49.5404,21.1525026 49.0174,20.9505026 48.5424,20.6685026 C47.8004,20.2275026 47.4294,19.5565026 47.4664,18.6855026 C47.4934,18.0465026 47.9334,17.7265026 48.5034,18.0155026 C48.9454,18.2395026 49.3594,18.5775026 49.6854,18.9525026 C50.2434,19.5955026 50.9354,19.9685026 51.7244,20.2035026 C52.1024,20.3165026 52.4624,20.3615026 52.8544,20.1515026 C53.0854,20.0275026 53.4044,20.0695026 53.7314,20.0315026" id="Fill-9" fill="#FFFFFF"></path>
                    <path d="M5.8574,18.1428026 C5.2294,18.0248026 5.1084,17.5018026 4.8874,17.0688026 C4.5684,16.4418026 4.4924,16.3928026 3.8044,16.4988026 C2.8524,16.6468026 1.9694,16.9508026 1.2554,17.6398026 C1.0574,17.8308026 0.7784,18.0428026 0.5504,17.7938026 C0.3524,17.5788026 0.1284,17.1798026 0.2044,16.9618026 C0.3524,16.5318026 0.6594,16.1318026 0.9774,15.7918026 C1.3234,15.4228026 1.7564,15.1378026 2.1364,14.8298026 C2.3694,14.8298026 2.6064,14.8348026 2.8424,14.8288026 C3.3204,14.8148026 3.8114,14.7128026 4.2724,14.7928026 C5.7564,15.0508026 6.4854,16.6308026 5.8574,18.1428026" id="Fill-11" fill="#FFFFFF"></path>
                    <path d="M57.3593,16.6907026 C58.1693,16.4917026 58.8423,16.7757026 59.3503,17.3787026 C59.8313,17.9497026 60.3983,18.4507026 60.9403,18.9677026 C61.3253,19.3367026 61.4343,19.7847026 61.3463,20.2827026 C61.2573,20.7887026 60.9673,20.9367026 60.4863,20.7587026 C58.7903,20.1317026 57.5593,18.5307026 57.3593,16.6907026" id="Fill-13" fill="#FFFFFF"></path>
                </g>
            </g>
        </g>
    </g>
</svg>