<?xml version="1.0" encoding="UTF-8"?>
<svg width="81px" height="57px" viewBox="0 0 81 57" version="1.1" xmlns="http://www.w3.org/2000/svg" xmlns:xlink="http://www.w3.org/1999/xlink">
    <title>top1@1x</title>
    <g id="WAP" stroke="none" stroke-width="1" fill="none" fill-rule="evenodd">
        <g id="菜单" transform="translate(-151.000000, -1244.000000)">
            <g id="3-2" transform="translate(0.000000, 916.000000)">
                <g id="2-2" transform="translate(0.000000, 153.000000)">
                    <g id="top1" transform="translate(151.762318, 175.141424)">
                        <path d="M39.6121183,0 C52.4355462,0 63.2559999,8.57575183 66.6512465,20.3050225 L75.5416985,15.8346571 L79.6987877,38.0917384 L62.9397995,43.8987206 C57.8803819,51.3762459 49.3202449,56.2913735 39.6121183,56.2913735 C26.8964783,56.2913735 16.1502818,47.8591836 12.6601774,36.2814523 L12.6296768,36.4426211 L9.38970566,37.5500285 L7.00075912,25.2545611 L2.24547577,26.8510729 L0,16.4403025 L17.4078204,10.8476977 C22.5585591,4.24545646 30.5895489,0 39.6121183,0 Z" id="形状结合" fill="#0A2DB8"></path>
                        <g id="top" transform="translate(4.667748, 8.277648)" fill="#FFFFFF">
                            <polygon id="路径-4" points="0 10.8407856 14.6341467 6.08586314 14.9640731 8.64213492 10.1495819 10.2107202 12.3850301 22.5200287 7.80888 24.00691 5.57343174 11.6933393 0.460626323 13.3891748"></polygon>
                            <path d="M26.471584,6.33027091 C28.2242416,5.79527679 29.2449109,6.20418937 29.5335919,7.55700868 L29.5335919,7.55700868 L31.1979584,16.4295385 C24.6907994,18.7218717 21.1612932,19.8680383 20.6094396,19.8680383 C20.057586,19.8680383 19.5120829,19.4262955 18.9729305,18.5428098 L18.9729305,18.5428098 L17.2223328,9.26231828 C21.6358427,7.84261416 24.7189265,6.86526504 26.471584,6.33027091 Z M25.1076737,9.36368708 L22.3429163,10.2620112 L23.3126174,16.3281697 L26.0535407,15.4375898 L25.1076737,9.36368708 Z" id="形状结合"></path>
                            <path d="M44.8492646,0 C45.8968753,5.24873807 46.4804079,8.34223524 46.5998623,9.28049152 C46.7193166,10.2187478 46.3627386,10.9618948 45.5301282,11.5099327 L45.5301282,11.5099327 L39.6095311,13.5218237 L40.5403869,18.9345591 L35.9642368,20.4214404 L33.1686701,4.5998455 L32.2648518,4.08892359 Z M40.8175479,3.97345553 L38.0766246,4.86403548 L39.1673791,11.1405618 L41.9333646,10.2107202 L40.8175479,3.97345553 Z" id="形状结合"></path>
                        </g>
                        <g id="no1" transform="translate(33.633861, 21.799472)" fill="#FFFFFF">
                            <polygon id="路径-9" points="0 13.9594388 1.14241018 14.5229605 3.29873868 26.8269891 7.09525711 25.576357 5.66193739 17.5312613 12.4349793 23.8413761 16.7067571 22.4533913 14.3282547 9.30390668 10.6794445 10.4850863 12.177826 18.7348123 5.13948265 12.2895197"></polygon>
                            <path d="M25.1220064,8.87474378 C26.9325984,8.29684385 28.0459088,8.8336247 28.4619376,10.4850863 L28.4619376,10.4850863 L29.3454157,15.4577961 L29.7508889,17.7400265 C29.4514487,17.8395307 29.1588178,17.9368061 28.8729962,18.0318526 L28.0359595,18.3103053 C24.3612204,19.5332525 21.9274838,20.3499839 20.7347495,20.7604993 C19.3653139,21.2318319 18.5752665,20.9088677 18.3646072,19.7916068 L18.3646072,19.7916068 L16.8962753,11.5278923 C20.5695041,10.3370266 23.3114145,9.45264372 25.1220064,8.87474378 Z M24.1963279,11.5278923 L21.4771659,12.4846719 L22.2205817,17.3501047 L24.8610694,16.4424642 L24.1963279,11.5278923 Z" id="形状结合"></path>
                            <polygon id="路径-12" points="31.3923204 14.140421 34.7259147 13.0591043 35.242279 15.6936332 31.8604549 16.7924545 31.3923204 14.3929227"></polygon>
                            <polygon id="路径-13" points="33.3172997 2.80634601 33.7177175 5.22685459 35.3736073 4.41824852 37.2378165 14.9170271 41.4502303 13.4134945 39.0543561 0"></polygon>
                        </g>
                    </g>
                </g>
            </g>
        </g>
    </g>
</svg>