<?xml version="1.0" encoding="UTF-8"?>
<svg width="80px" height="57px" viewBox="0 0 80 57" version="1.1" xmlns="http://www.w3.org/2000/svg" xmlns:xlink="http://www.w3.org/1999/xlink">
    <title>top3@1x</title>
    <g id="WAP" stroke="none" stroke-width="1" fill="none" fill-rule="evenodd">
        <g id="菜单" transform="translate(-771.000000, -1245.000000)">
            <g id="3-2" transform="translate(0.000000, 916.000000)">
                <g id="2-2" transform="translate(0.000000, 153.000000)">
                    <g id="top3" transform="translate(771.762318, 176.141424)">
                        <path d="M39.6121183,0 C52.4570749,0 63.2923262,8.60457089 66.6682841,20.3641244 L75.6347737,17.6413355 L78.2805831,35.4010458 C78.4646783,37.029454 77.4240582,38.5456561 75.8383658,38.9594 L75.6347737,39.0125219 L64.1056865,42.0208711 C59.2679214,50.542519 50.1113783,56.2913735 39.6121183,56.2913735 C26.8964783,56.2913735 16.1502818,47.8591836 12.6601774,36.2814523 L12.6296768,36.4426211 L9.38970566,37.5500285 L7.00075912,25.2545611 L2.24547577,26.8510729 L0,16.4403025 L17.4078204,10.8476977 C22.5585591,4.24545646 30.5895489,0 39.6121183,0 Z" id="形状结合" fill="#0A2DB8"></path>
                        <g id="top" transform="translate(4.667748, 8.277648)" fill="#FFFFFF">
                            <polygon id="路径-4" points="0 10.8407856 14.6341467 6.08586314 14.9640731 8.64213492 10.1495819 10.2107202 12.3850301 22.5200287 7.80888 24.00691 5.57343174 11.6933393 0.460626323 13.3891748"></polygon>
                            <path d="M26.471584,6.33027091 C28.2242416,5.79527679 29.2449109,6.20418937 29.5335919,7.55700868 L29.5335919,7.55700868 L31.1979584,16.4295385 C24.6907994,18.7218717 21.1612932,19.8680383 20.6094396,19.8680383 C20.057586,19.8680383 19.5120829,19.4262955 18.9729305,18.5428098 L18.9729305,18.5428098 L17.2223328,9.26231828 C21.6358427,7.84261416 24.7189265,6.86526504 26.471584,6.33027091 Z M25.1076737,9.36368708 L22.3429163,10.2620112 L23.3126174,16.3281697 L26.0535407,15.4375898 L25.1076737,9.36368708 Z" id="形状结合"></path>
                            <path d="M44.8492646,0 C45.8968753,5.24873807 46.4804079,8.34223524 46.5998623,9.28049152 C46.7193166,10.2187478 46.3627386,10.9618948 45.5301282,11.5099327 L45.5301282,11.5099327 L39.6095311,13.5218237 L40.5403869,18.9345591 L35.9642368,20.4214404 L33.1686701,4.5998455 L32.2648518,4.08892359 Z M40.8175479,3.97345553 L38.0766246,4.86403548 L39.1673791,11.1405618 L41.9333646,10.2107202 L40.8175479,3.97345553 Z" id="形状结合"></path>
                        </g>
                        <g id="no1" transform="translate(25.633861, 21.739287)" fill="#FFFFFF">
                            <polygon id="路径-9" points="0 16.0196243 1.14241018 16.583146 3.29873868 28.8871746 7.09525711 27.6365425 5.66193739 19.5914468 12.4349793 25.9015616 16.7067571 24.5135768 14.3282547 11.3640922 10.6794445 12.5452719 12.177826 20.7949978 5.13948265 14.3497052"></polygon>
                            <path d="M25.1220064,10.9349293 C26.9325984,10.3570294 28.0459088,10.8938102 28.4619376,12.5452719 L28.4619376,12.5452719 L29.3454157,17.5179817 L29.7508889,19.800212 C29.4514487,19.8997163 29.1588178,19.9969916 28.8729962,20.0920381 L28.0359595,20.3704908 C24.3612204,21.5934381 21.9274838,22.4101694 20.7347495,22.8206848 C19.3653139,23.2920174 18.5752665,22.9690532 18.3646072,21.8517923 L18.3646072,21.8517923 L16.8962753,13.5880779 C20.5695041,12.3972121 23.3114145,11.5128292 25.1220064,10.9349293 Z M24.1963279,13.5880779 L21.4771659,14.5448574 L22.2205817,19.4102902 L24.8610694,18.5026497 L24.1963279,13.5880779 Z" id="形状结合"></path>
                            <polygon id="路径-12" points="31.3923204 16.2006065 34.7259147 15.1192898 35.242279 17.7538187 31.8604549 18.85264 31.3923204 16.4531082"></polygon>
                            <path d="M35.2614914,4.03547901 L35.6302304,6.17799121 L43.6177577,3.48539545 L44.126738,6.51789446 L36.9379635,8.93918186 L37.3135322,11.101207 L44.5023068,8.67991958 L45.077993,12.1476555 L37.1114855,14.8308951 L37.4660344,17 L47.6242034,13.5995884 C48.8278701,12.9617425 49.2872957,11.9523497 49.0024802,10.5714098 C48.7176648,9.19046993 48.1310988,5.66666667 47.2427824,0 L35.2614914,4.03547901 Z" id="路径-15"></path>
                        </g>
                    </g>
                </g>
            </g>
        </g>
    </g>
</svg>