<?xml version="1.0" encoding="UTF-8"?>
<svg width="80px" height="57px" viewBox="0 0 80 57" version="1.1" xmlns="http://www.w3.org/2000/svg" xmlns:xlink="http://www.w3.org/1999/xlink">
    <title>top2@1x</title>
    <g id="WAP" stroke="none" stroke-width="1" fill="none" fill-rule="evenodd">
        <g id="菜单" transform="translate(-461.000000, -1244.000000)">
            <g id="3-2" transform="translate(0.000000, 916.000000)">
                <g id="2-2" transform="translate(0.000000, 153.000000)">
                    <g id="top2" transform="translate(461.762318, 175.141424)">
                        <path d="M39.6121183,0 C52.4592642,0 63.2960198,8.60750435 66.6700097,20.3701377 L76.2728081,17.6413355 L78.6013603,38.2384706 L64.1056865,42.0208711 C59.2679214,50.542519 50.1113783,56.2913735 39.6121183,56.2913735 C26.8964783,56.2913735 16.1502818,47.8591836 12.6601774,36.2814523 L12.6296768,36.4426211 L9.38970566,37.5500285 L7.00075912,25.2545611 L2.24547577,26.8510729 L0,16.4403025 L17.4078204,10.8476977 C22.5585591,4.24545646 30.5895489,0 39.6121183,0 Z" id="形状结合" fill="#0A2DB8"></path>
                        <g id="top" transform="translate(4.667748, 8.277648)" fill="#FFFFFF">
                            <polygon id="路径-4" points="0 10.8407856 14.6341467 6.08586314 14.9640731 8.64213492 10.1495819 10.2107202 12.3850301 22.5200287 7.80888 24.00691 5.57343174 11.6933393 0.460626323 13.3891748"></polygon>
                            <path d="M26.471584,6.33027091 C28.2242416,5.79527679 29.2449109,6.20418937 29.5335919,7.55700868 L29.5335919,7.55700868 L31.1979584,16.4295385 C24.6907994,18.7218717 21.1612932,19.8680383 20.6094396,19.8680383 C20.057586,19.8680383 19.5120829,19.4262955 18.9729305,18.5428098 L18.9729305,18.5428098 L17.2223328,9.26231828 C21.6358427,7.84261416 24.7189265,6.86526504 26.471584,6.33027091 Z M25.1076737,9.36368708 L22.3429163,10.2620112 L23.3126174,16.3281697 L26.0535407,15.4375898 L25.1076737,9.36368708 Z" id="形状结合"></path>
                            <path d="M44.8492646,0 C45.8968753,5.24873807 46.4804079,8.34223524 46.5998623,9.28049152 C46.7193166,10.2187478 46.3627386,10.9618948 45.5301282,11.5099327 L45.5301282,11.5099327 L39.6095311,13.5218237 L40.5403869,18.9345591 L35.9642368,20.4214404 L33.1686701,4.5998455 L32.2648518,4.08892359 Z M40.8175479,3.97345553 L38.0766246,4.86403548 L39.1673791,11.1405618 L41.9333646,10.2107202 L40.8175479,3.97345553 Z" id="形状结合"></path>
                        </g>
                        <g id="no1" transform="translate(25.633861, 22.075907)" fill="#FFFFFF">
                            <polygon id="路径-9" points="0 15.6830035 1.14241018 16.2465252 3.29873868 28.5505538 7.09525711 27.2999217 5.66193739 19.254826 12.4349793 25.5649408 16.7067571 24.176956 14.3282547 11.0274714 10.6794445 12.2086511 12.177826 20.458377 5.13948265 14.0130844"></polygon>
                            <path d="M25.1220064,10.5983085 C26.9325984,10.0204086 28.0459088,10.5571894 28.4619376,12.2086511 L28.4619376,12.2086511 L29.3454157,17.1813609 L29.7508889,19.4635912 C29.4514487,19.5630955 29.1588178,19.6603708 28.8729962,19.7554173 L28.0359595,20.03387 C24.3612204,21.2568172 21.9274838,22.0735486 20.7347495,22.484064 C19.3653139,22.9553966 18.5752665,22.6324324 18.3646072,21.5151715 L18.3646072,21.5151715 L16.8962753,13.251457 C20.5695041,12.0605913 23.3114145,11.1762084 25.1220064,10.5983085 Z M24.1963279,13.251457 L21.4771659,14.2082366 L22.2205817,19.0736694 L24.8610694,18.1660289 L24.1963279,13.251457 Z" id="形状结合"></path>
                            <polygon id="路径-12" points="31.3923204 15.8639857 34.7259147 14.782669 35.242279 17.4171979 31.8604549 18.5160192 31.3923204 16.1164874"></polygon>
                            <path d="M40.4334999,4.50958649 L40.6757491,6.18108407 L36.6255222,7.2663391 L36.1604003,3.48405004 L48.289764,0.233996814 L49.2398841,7.89744866 L40.7145313,10.0776105 L41.0905041,13.015583 L48.7458923,10.819604 L49.4502303,10.0776105 L49.8401704,12.841627 L39.1603615,15.7032732 C38.1518583,15.5057655 37.6031553,15.134914 37.5142524,14.5907185 C37.4253496,14.0465231 37.1956446,12.1660371 36.8251374,8.94926042 L44.9042742,6.78446223 L44.5512664,3.48405004 L40.4334999,4.50958649 Z" id="路径-14" transform="translate(43.000285, 7.968635) rotate(-2.000000) translate(-43.000285, -7.968635) "></path>
                        </g>
                    </g>
                </g>
            </g>
        </g>
    </g>
</svg>